<?xml version="1.0" standalone="no"?>
<!DOCTYPE svg PUBLIC "-//W3C//DTD SVG 20010904//EN"
 "http://www.w3.org/TR/2001/REC-SVG-20010904/DTD/svg10.dtd">
<svg version="1.0" xmlns="http://www.w3.org/2000/svg"
 width="859.000000pt" height="859.000000pt" viewBox="0 0 859.000000 859.000000"
 preserveAspectRatio="xMidYMid meet">
<metadata>
Created by potrace 1.14, written by Peter Selinger 2001-2017
</metadata>
<g transform="translate(0.000000,859.000000) scale(0.100000,-0.100000)"
fill="#000000" stroke="none">
<path d="M6236 8104 c9 -22 28 -61 42 -89 40 -80 80 -179 133 -335 170 -492
289 -688 593 -974 118 -111 141 -139 172 -202 20 -40 35 -77 32 -84 -2 -6 -33
17 -68 51 -163 155 -407 274 -624 304 -55 8 -102 12 -105 10 -2 -3 18 -30 45
-61 69 -80 123 -150 165 -214 79 -122 109 -170 109 -175 0 -14 127 -170 186
-227 131 -127 235 -185 408 -227 l109 -27 19 -54 c24 -68 59 -202 55 -207 -2
-2 -28 23 -58 55 -178 191 -428 318 -685 348 -30 4 -54 4 -54 1 0 -4 19 -30
43 -59 82 -103 136 -186 194 -303 85 -169 159 -275 258 -368 105 -99 254 -181
352 -192 34 -4 66 -12 71 -18 6 -7 12 -30 15 -52 2 -22 12 -94 21 -159 14
-104 15 -141 3 -125 -2 2 -19 27 -39 54 -20 28 -48 61 -62 74 -14 14 -26 29
-26 35 0 26 -154 150 -260 208 -120 66 -350 144 -350 118 0 -4 10 -22 23 -41
48 -71 100 -179 143 -299 70 -191 110 -274 201 -413 105 -159 193 -248 338
-340 49 -32 50 -33 53 -87 4 -65 -16 -278 -28 -300 -8 -13 -9 -13 -14 0 -2 8
-16 49 -29 91 -87 266 -294 503 -545 625 -29 14 -56 24 -59 21 -3 -3 0 -21 7
-39 7 -18 19 -51 27 -72 20 -56 60 -267 68 -361 33 -400 119 -624 328 -850 53
-57 53 -58 2 -175 -18 -41 -38 -88 -44 -105 -7 -16 -20 -41 -31 -55 l-20 -25
0 50 c-2 300 -139 580 -378 775 -29 23 -54 41 -56 39 -2 -2 1 -38 6 -79 13
-98 4 -217 -26 -365 -51 -247 -62 -405 -42 -590 14 -135 20 -157 92 -363 14
-40 14 -44 -5 -70 -24 -33 -231 -235 -236 -230 -2 2 14 51 35 110 93 252 69
537 -66 783 -66 120 -84 139 -84 88 0 -14 -16 -73 -36 -130 -33 -98 -63 -155
-162 -313 -96 -152 -164 -283 -220 -425 -36 -90 -55 -205 -61 -374 l-6 -164
-125 -63 c-69 -34 -136 -66 -150 -70 l-25 -7 28 34 c53 66 133 195 164 264 58
132 77 239 78 430 0 158 -15 285 -33 285 -4 0 -23 -24 -42 -53 -77 -117 -134
-173 -382 -375 -118 -95 -328 -313 -328 -340 0 -5 -7 -15 -15 -22 -43 -35
-173 -295 -190 -380 -13 -61 -33 -100 -52 -100 -69 1 -536 -128 -657 -182 -39
-17 -78 -31 -87 -30 -8 0 -44 14 -80 30 -77 35 -264 97 -357 117 -37 8 -123
28 -192 43 l-125 29 -18 59 c-48 155 -156 376 -202 414 -8 7 -15 17 -15 22 0
10 -123 153 -180 207 -47 46 -178 159 -285 246 -93 75 -190 179 -245 262 -19
29 -38 53 -42 53 -18 0 -33 -127 -33 -285 1 -190 20 -297 78 -430 31 -69 111
-198 164 -264 l28 -34 -25 7 c-14 4 -81 36 -150 70 l-125 63 -6 164 c-11 300
-66 457 -281 799 -123 197 -177 314 -193 423 -4 26 -10 47 -13 47 -20 0 -114
-178 -151 -287 -62 -181 -61 -409 2 -588 19 -55 38 -108 42 -117 4 -10 4 -18
-1 -18 -10 0 -210 198 -236 233 l-19 27 26 73 c59 159 69 200 85 366 13 130 0
332 -31 481 -41 192 -51 282 -45 380 3 52 9 106 13 119 7 29 -3 24 -72 -34
-152 -127 -254 -273 -314 -452 -31 -91 -51 -210 -51 -306 0 -72 -11 -57 -88
118 -59 136 -59 131 4 200 119 130 200 270 253 440 33 103 41 153 66 390 21
204 44 314 88 422 11 29 18 55 15 59 -7 6 -65 -20 -133 -59 -118 -67 -269
-212 -347 -332 -53 -81 -108 -196 -133 -275 -9 -30 -19 -62 -22 -70 -4 -13 -5
-13 -13 0 -11 20 -33 254 -28 310 3 43 6 47 64 85 144 94 224 176 329 335 87
133 131 222 190 390 40 111 107 253 150 315 14 21 25 41 25 45 0 13 -93 -8
-180 -40 -212 -78 -375 -199 -504 -373 -32 -43 -60 -77 -62 -75 -6 6 37 332
45 341 4 4 39 11 78 16 118 15 267 102 386 226 70 73 160 209 225 340 37 74
101 176 157 250 89 116 87 109 22 102 -263 -31 -495 -149 -689 -352 -32 -33
-58 -56 -58 -51 0 11 55 202 68 237 9 23 22 28 114 49 215 48 390 169 543 375
30 41 55 78 55 81 0 17 196 298 254 364 69 78 78 95 49 86 -10 -2 -49 -7 -88
-11 -190 -18 -463 -151 -625 -304 -35 -34 -66 -57 -68 -51 -3 7 12 45 32 85
31 63 55 90 171 200 73 69 160 159 192 198 32 40 60 74 63 77 3 3 26 37 51 75
124 189 176 300 265 565 52 154 95 262 161 403 25 54 44 100 42 102 -2 2 -38
-28 -79 -67 -41 -38 -145 -131 -230 -206 -321 -281 -449 -448 -548 -712 -53
-142 -66 -204 -103 -505 -9 -71 -20 -116 -41 -157 -16 -32 -32 -58 -36 -58 -5
0 -6 63 -4 139 3 77 -1 188 -7 248 -12 118 -65 341 -104 443 -14 36 -28 73
-31 83 -11 33 -23 16 -45 -60 -23 -83 -60 -191 -116 -338 -116 -308 -143 -475
-110 -676 21 -129 103 -288 183 -356 l26 -22 -32 -93 c-17 -51 -36 -112 -42
-135 -6 -24 -15 -43 -20 -43 -6 0 -10 3 -10 8 0 45 -56 300 -84 379 -33 98
-109 277 -126 298 -4 6 -20 33 -35 60 -16 28 -37 62 -49 76 -12 15 -26 35 -32
45 -7 11 -14 17 -17 14 -3 -3 -13 -66 -22 -140 -9 -74 -30 -205 -48 -290 -28
-141 -31 -172 -31 -345 0 -198 5 -233 48 -330 13 -27 27 -61 33 -75 23 -55
207 -230 243 -230 5 0 10 -8 10 -17 0 -19 -47 -269 -59 -318 -7 -27 -9 -28
-16 -10 -4 11 -16 38 -26 60 -10 22 -21 54 -25 70 -9 37 -95 214 -123 254 -12
16 -21 33 -21 38 0 4 -17 31 -38 58 -20 28 -54 75 -74 105 -21 30 -50 69 -65
86 -15 16 -49 53 -75 82 -25 29 -49 52 -52 52 -10 0 -6 -661 4 -730 18 -114
42 -202 85 -305 64 -155 130 -247 235 -329 32 -25 61 -46 65 -46 3 0 28 -14
54 -31 l48 -32 13 -161 c16 -205 14 -214 -28 -147 -17 29 -32 54 -32 57 0 3
-71 108 -140 208 -118 169 -392 472 -467 516 l-36 21 6 -31 c4 -16 12 -61 18
-98 6 -37 23 -137 39 -222 16 -85 31 -177 35 -205 21 -163 137 -506 190 -565
8 -9 15 -20 15 -25 0 -16 110 -144 162 -187 112 -93 198 -134 343 -159 82 -15
91 -20 101 -62 3 -17 29 -82 55 -145 27 -63 47 -117 45 -120 -3 -2 -29 16 -58
40 -29 25 -77 61 -106 81 -29 20 -70 49 -90 65 -36 28 -213 147 -307 205 -114
71 -385 197 -385 179 1 -8 45 -96 169 -337 107 -206 160 -299 210 -370 19 -27
48 -69 63 -92 40 -59 166 -184 239 -237 87 -64 211 -122 309 -147 72 -18 100
-20 190 -14 206 13 167 28 315 -122 71 -73 126 -133 121 -133 -4 0 -67 20
-139 44 -304 100 -522 154 -772 191 -162 24 -255 31 -255 20 0 -9 232 -229
350 -331 25 -21 48 -44 52 -50 4 -6 45 -43 90 -81 229 -193 344 -261 560 -335
120 -40 126 -41 258 -42 127 0 141 2 230 33 52 18 125 51 162 73 74 44 96 45
149 7 15 -10 76 -43 135 -72 l108 -54 -185 -6 c-101 -4 -249 -16 -329 -28 -80
-11 -172 -24 -205 -29 -64 -9 -363 -73 -430 -92 -57 -16 -62 -25 -24 -41 19
-8 54 -23 79 -35 25 -11 92 -39 150 -62 58 -22 141 -56 185 -75 222 -94 375
-146 515 -177 151 -33 414 -33 545 0 160 40 281 106 407 222 l66 60 124 -29
c68 -16 164 -39 213 -50 124 -29 288 -84 292 -98 3 -6 -8 -18 -24 -26 -37 -20
-180 -161 -220 -217 -25 -36 -63 -111 -63 -125 0 -2 15 -10 34 -19 71 -34 142
-12 176 53 30 60 127 169 193 217 58 43 59 44 90 27 48 -24 181 -164 219 -230
28 -47 42 -61 74 -72 44 -15 98 -10 130 13 18 14 18 15 0 53 -10 21 -32 58
-49 83 -40 57 -183 197 -220 217 -16 8 -27 20 -25 26 7 22 154 65 482 142
l148 35 64 -59 c133 -125 255 -187 445 -225 159 -33 290 -34 460 -5 118 20
301 74 419 123 30 13 93 40 140 60 47 19 103 42 125 50 35 13 167 68 289 121
61 26 48 31 -244 93 -303 65 -481 88 -745 98 l-180 7 85 42 c47 22 115 58 151
78 36 20 73 37 81 37 8 0 43 -17 79 -39 35 -21 107 -53 159 -71 89 -31 103
-33 230 -33 132 0 138 1 258 41 175 60 277 114 422 223 68 51 235 195 301 259
14 14 72 68 129 120 56 52 127 119 157 148 l55 52 -47 0 c-77 0 -318 -37 -490
-76 -191 -43 -324 -80 -503 -141 -73 -25 -135 -43 -137 -41 -2 2 56 64 128
137 l132 134 81 -11 c116 -17 200 -15 290 8 180 46 367 170 499 331 28 33 62
75 76 92 15 18 47 72 73 122 26 49 53 96 60 105 8 8 27 42 43 75 16 33 51 101
77 150 116 216 165 315 155 315 -32 0 -319 -145 -434 -220 -33 -21 -73 -47
-90 -56 -16 -9 -65 -42 -108 -73 -43 -31 -86 -60 -96 -66 -17 -10 -72 -53
-164 -128 -27 -22 -50 -37 -53 -34 -3 2 17 56 44 118 27 63 55 131 61 151 13
40 15 41 111 59 198 38 363 151 484 333 86 130 188 419 211 601 4 28 15 95 26
150 36 189 69 398 64 403 -21 21 -320 -293 -464 -488 -59 -81 -171 -245 -171
-252 0 -3 -16 -30 -35 -59 -42 -64 -41 -70 -24 157 l12 152 80 47 c149 89 241
198 318 377 22 51 52 136 66 188 24 91 26 110 32 475 4 209 5 384 3 388 -5 9
-61 -47 -103 -103 -15 -19 -35 -44 -45 -55 -30 -32 -77 -95 -99 -131 -11 -18
-35 -59 -54 -91 -18 -32 -41 -67 -50 -78 -20 -24 -86 -165 -133 -284 -38 -96
-35 -100 -64 79 -9 58 -20 124 -24 148 -7 41 -5 44 22 58 78 40 187 149 214
214 4 8 22 50 41 94 22 49 39 107 45 155 15 117 3 345 -27 496 -22 111 -65
404 -65 443 0 21 -16 13 -31 -15 -8 -16 -28 -46 -44 -68 -51 -67 -151 -282
-194 -415 -22 -69 -50 -182 -62 -252 -13 -71 -26 -128 -30 -128 -4 0 -10 15
-14 33 -4 17 -23 78 -42 135 l-35 103 21 15 c31 22 106 132 141 205 82 176 77
433 -14 689 -24 69 -65 184 -91 255 -25 72 -58 168 -71 215 -28 96 -39 113
-49 79 -4 -13 -18 -53 -32 -89 -29 -73 -62 -194 -89 -320 -13 -65 -18 -134
-18 -292 -1 -115 -4 -208 -8 -208 -3 0 -18 21 -33 48 -27 47 -39 108 -65 322
-34 273 -116 479 -278 696 -76 102 -167 194 -322 329 -69 60 -154 136 -190
170 -36 34 -86 81 -113 105 l-47 43 16 -39z"/>
</g>
</svg>
