<?xml version="1.0" standalone="no"?>
<!DOCTYPE svg PUBLIC "-//W3C//DTD SVG 20010904//EN"
 "http://www.w3.org/TR/2001/REC-SVG-20010904/DTD/svg10.dtd">
<svg version="1.0" xmlns="http://www.w3.org/2000/svg"
 width="800.000000pt" height="800.000000pt" viewBox="0 0 800.000000 800.000000"
 preserveAspectRatio="xMidYMid meet">
<metadata>
Created by potrace 1.14, written by Peter Selinger 2001-2017
</metadata>
<g transform="translate(0.000000,800.000000) scale(0.100000,-0.100000)"
fill="#000000" stroke="none">
<path d="M3575 6954 c8 -13 11 -25 6 -29 -5 -3 -12 0 -14 5 -3 6 -4 5 -2 -2 1
-7 8 -12 14 -10 6 1 11 -3 11 -9 0 -5 4 -8 9 -5 5 4 7 -3 4 -14 -4 -14 0 -20
11 -20 9 0 16 -8 16 -17 0 -15 -2 -16 -10 -3 -6 9 -10 10 -10 3 0 -6 9 -19 21
-27 12 -8 18 -19 15 -24 -3 -5 1 -15 9 -22 8 -7 12 -16 9 -21 -3 -5 3 -6 12
-2 13 5 16 3 11 -10 -3 -9 -2 -17 4 -17 6 0 17 -7 25 -15 9 -8 11 -15 6 -15
-6 0 -9 -6 -8 -12 3 -21 16 -38 29 -38 7 0 6 4 -3 10 -8 5 -10 10 -4 10 6 0
18 -8 25 -17 10 -11 10 -14 2 -9 -7 4 -13 2 -13 -3 0 -6 5 -11 10 -11 6 0 10
-5 10 -11 0 -5 -6 -7 -12 -3 -7 4 -5 -2 5 -13 9 -11 15 -22 12 -25 -3 -2 2 -5
10 -5 8 0 12 3 10 7 -2 3 1 12 6 20 9 13 10 13 6 0 -2 -8 0 -23 5 -34 8 -14 7
-17 -3 -11 -8 6 -10 4 -5 -4 5 -7 14 -10 22 -7 8 3 19 -4 25 -17 9 -18 9 -20
-2 -9 -18 17 -34 15 -19 -3 9 -10 9 -15 1 -15 -6 0 -11 -8 -12 -17 0 -16 -1
-15 -8 2 -8 19 -8 19 -20 0 -11 -19 -12 -19 -6 2 3 12 1 24 -4 28 -7 4 -8 -1
-4 -11 4 -12 3 -15 -5 -10 -8 5 -10 2 -6 -9 5 -11 2 -14 -9 -9 -9 3 -14 13
-10 22 4 13 3 14 -5 4 -5 -8 -12 -13 -16 -13 -19 3 -27 0 -22 -7 3 -5 -1 -9
-9 -9 -8 0 -12 4 -9 9 3 4 1 8 -5 8 -5 0 -12 -8 -14 -17 -4 -17 -5 -17 -6 0 0
9 -6 17 -12 17 -6 0 -8 -10 -5 -22 3 -13 3 -17 0 -10 -4 9 -10 10 -18 3 -9 -8
-13 -7 -13 4 0 8 4 12 9 9 4 -3 8 0 8 6 0 7 -6 10 -14 7 -7 -3 -19 0 -26 6
-10 10 -10 8 -2 -8 10 -19 7 -20 -54 -19 -35 0 -64 -3 -64 -8 0 -4 -4 -8 -8
-8 -5 0 -9 7 -9 15 0 8 4 12 8 9 4 -2 11 1 15 8 4 7 4 10 -1 6 -4 -4 -15 -2
-23 5 -13 9 -14 9 -8 0 4 -8 2 -13 -4 -13 -6 0 -8 -5 -4 -12 6 -10 5 -10 -7
-1 -11 9 -19 9 -26 2 -6 -6 -10 -5 -10 5 0 8 8 13 17 11 9 -2 17 3 17 11 0 11
-3 11 -15 1 -8 -6 -18 -11 -21 -9 -3 2 -8 -5 -12 -15 -6 -13 -8 -14 -8 -3 -1
8 -11 21 -22 29 -19 11 -21 11 -16 -1 7 -19 -31 -17 -43 1 -6 11 -9 11 -13 0
-4 -10 -6 -10 -6 -1 -1 6 -6 12 -12 12 -5 0 -8 -4 -5 -8 2 -4 -4 -8 -15 -8
-10 0 -18 6 -16 12 1 7 -2 12 -8 11 -5 -1 -9 -5 -7 -9 4 -14 -16 -8 -33 9 -14
13 -21 14 -36 5 -15 -9 -17 -9 -13 2 4 11 -1 13 -18 9 -18 -4 -20 -3 -8 6 8 6
10 11 5 11 -6 0 -16 -5 -23 -12 -9 -9 -12 -9 -12 2 0 11 -3 11 -12 2 -7 -7
-17 -12 -22 -12 -6 0 -4 5 4 11 12 9 10 10 -8 6 -15 -4 -25 0 -29 9 -5 15 -28
19 -36 7 -2 -5 -2 -3 -1 4 2 6 -4 14 -12 17 -24 9 -30 7 -14 -5 12 -9 11 -9
-5 -3 -11 4 -36 8 -55 8 -31 1 -35 -2 -36 -25 -1 -22 3 -25 23 -23 21 2 22 0
11 -13 -10 -12 -9 -17 5 -28 9 -6 15 -14 12 -16 -2 -3 5 -6 17 -6 12 -1 26 -7
32 -14 8 -8 5 -10 -12 -4 l-23 7 23 -24 c13 -14 26 -23 30 -21 4 2 10 -2 14
-8 4 -8 9 -7 16 2 8 11 9 11 5 -1 -4 -16 28 -55 46 -55 7 -1 11 -7 9 -14 -2
-9 5 -12 23 -9 22 5 23 3 13 -10 -11 -13 -11 -14 1 -7 11 6 13 4 9 -7 -4 -8 0
-15 8 -15 7 0 11 4 8 9 -3 4 0 8 5 8 6 0 11 -5 11 -11 0 -5 5 -7 10 -4 6 3 10
-1 10 -9 0 -9 6 -16 13 -16 9 0 8 -3 -2 -9 -7 -5 -10 -14 -7 -20 5 -7 -1 -11
-13 -11 -26 0 -27 8 -3 27 15 13 15 13 -4 4 -12 -6 -24 -18 -28 -26 -4 -11 -2
-14 7 -9 9 5 8 3 -1 -7 -8 -9 -15 -10 -20 -4 -9 13 -35 18 -27 5 3 -5 1 -10
-4 -10 -6 0 -11 6 -11 13 0 9 -3 8 -9 -2 -5 -8 -16 -11 -29 -7 -11 4 -23 2
-27 -3 -3 -6 0 -9 7 -8 7 2 10 2 5 0 -4 -3 -4 -10 -1 -15 4 -6 2 -8 -4 -4 -6
3 -22 2 -37 -4 -17 -7 -24 -7 -20 0 3 6 -1 10 -9 10 -9 0 -16 -5 -16 -12 0 -6
-10 -3 -22 8 -12 10 -18 13 -14 7 4 -8 2 -13 -5 -13 -8 0 -8 -5 2 -17 7 -10 1
-7 -14 7 -19 16 -26 19 -22 8 4 -9 1 -19 -6 -24 -8 -4 -10 -3 -5 4 4 7 1 12
-9 12 -10 0 -13 5 -9 13 6 9 5 9 -7 0 -8 -7 -24 -11 -35 -9 -10 2 -13 1 -6 -1
6 -3 12 -9 12 -14 0 -9 -8 -10 -75 -13 -16 0 -36 -5 -42 -9 -12 -7 -17 -2 -15
14 1 4 -8 4 -20 1 -14 -3 -19 -1 -14 6 4 7 2 12 -5 12 -7 0 -9 -8 -6 -21 5
-20 5 -20 -14 -3 -15 14 -17 20 -7 33 9 11 6 11 -9 -2 -14 -12 -23 -15 -28 -7
-8 12 -25 4 -25 -13 0 -8 3 -8 9 1 7 11 9 11 14 0 4 -11 -3 -14 -27 -13 -17 1
-38 -3 -46 -9 -13 -9 -13 -9 -3 5 13 16 8 29 -9 29 -5 0 -7 -4 -3 -9 3 -5 2
-12 -3 -15 -13 -8 -11 28 2 36 16 11 -6 10 -22 -1 -8 -4 -13 -11 -13 -15 1 -3
-2 -5 -6 -4 -5 2 -7 6 -6 10 1 3 -20 5 -47 4 -49 -3 -79 12 -66 32 3 5 -1 9
-9 9 -8 0 -12 -5 -8 -10 3 -5 -7 -1 -23 9 -15 11 -25 15 -22 9 3 -6 -4 -10
-17 -10 -13 0 -21 3 -18 8 2 4 -1 8 -6 8 -26 3 -30 4 -37 11 -7 8 21 4 49 -7
9 -4 17 -3 17 2 0 5 -6 10 -12 10 -23 1 -43 8 -50 18 -5 6 -8 5 -8 -2 0 -7 -7
-10 -16 -6 -12 4 -10 -1 6 -20 13 -15 28 -24 33 -20 6 3 7 1 3 -5 -5 -9 -13
-9 -27 -1 -12 6 -23 8 -27 5 -3 -3 1 -6 9 -6 12 0 11 -2 -1 -11 -13 -9 -12
-10 2 -5 10 3 20 1 23 -5 4 -5 11 -7 16 -3 6 3 10 0 8 -7 -3 -29 2 -38 19 -34
11 2 19 -3 19 -10 0 -7 -5 -12 -11 -11 -6 2 -8 1 -3 -1 4 -3 5 -9 2 -14 -4 -5
1 -6 10 -3 8 4 22 1 30 -6 8 -6 19 -9 24 -5 7 3 8 0 5 -9 -3 -9 -11 -13 -17
-9 -6 3 -7 1 -3 -6 4 -6 12 -9 17 -6 5 4 9 1 9 -6 0 -9 3 -9 14 0 12 10 16 8
22 -11 4 -13 7 -27 6 -31 -1 -5 2 -6 8 -2 6 3 8 11 5 16 -3 5 1 6 9 3 9 -3 13
-11 9 -17 -4 -6 0 -8 10 -4 11 4 17 1 17 -8 0 -13 19 -19 57 -18 7 1 10 -3 7
-8 -3 -5 -1 -9 4 -9 5 0 9 -7 9 -15 0 -13 -16 -20 -39 -16 -4 0 -4 -7 -1 -17
6 -15 5 -16 -12 -2 -17 14 -18 13 -12 -3 4 -10 3 -16 -2 -12 -5 3 -12 -1 -15
-7 -3 -7 -3 -3 0 10 3 12 1 22 -4 22 -5 0 -12 -9 -15 -21 -3 -12 -10 -18 -17
-14 -6 4 -18 1 -26 -6 -12 -10 -13 -9 -7 7 6 17 5 17 -10 5 -9 -7 -14 -18 -10
-24 3 -6 1 -7 -5 -3 -6 4 -8 14 -5 23 4 11 3 14 -5 9 -7 -4 -12 -14 -12 -22 0
-8 -5 -14 -11 -14 -5 0 -7 5 -3 12 4 7 -6 2 -23 -10 -18 -12 -34 -18 -37 -13
-4 5 -19 3 -36 -6 -17 -8 -28 -19 -25 -24 4 -5 0 -6 -8 -3 -8 3 -18 0 -22 -6
-5 -8 -10 -8 -20 0 -9 7 -15 8 -19 1 -4 -6 -14 -7 -23 -4 -11 4 -14 3 -9 -5 5
-8 2 -10 -8 -6 -9 3 -13 11 -9 17 4 6 1 7 -6 3 -7 -5 -10 -15 -7 -23 3 -8 1
-11 -5 -8 -5 4 -16 2 -23 -4 -10 -9 -13 -6 -11 12 3 21 -1 23 -24 19 l-26 -6
25 -6 c20 -5 22 -8 10 -15 -21 -13 -59 -14 -67 -2 -4 6 -1 7 7 2 9 -5 11 -4 6
4 -9 14 -26 5 -26 -15 0 -8 -5 -14 -11 -14 -5 0 -7 5 -4 10 7 12 -23 9 -44 -4
-8 -5 -16 -4 -21 3 -8 13 -31 11 -43 -4 -5 -6 -7 -4 -4 6 3 9 1 22 -4 30 -7
11 -9 9 -9 -8 0 -13 -4 -23 -9 -23 -5 0 -8 8 -7 18 1 13 -5 16 -28 14 -17 -2
-26 0 -22 6 7 11 -19 10 -30 -1 -13 -12 -24 -7 -25 11 0 14 -2 14 -9 -3 -5
-11 -9 -14 -9 -6 -1 10 -4 11 -15 2 -10 -8 -16 -9 -21 -1 -3 6 -11 7 -17 4 -7
-4 -8 -2 -4 5 4 6 11 9 16 6 5 -3 12 0 16 6 4 8 3 9 -4 5 -7 -4 -12 -1 -12 6
0 8 -3 9 -8 3 -4 -5 -13 -11 -21 -13 -12 -3 -12 -1 0 14 13 16 12 16 -7 6 -16
-8 -24 -8 -34 1 -10 10 -11 9 -5 -2 6 -11 4 -13 -11 -7 -10 4 -15 4 -12 0 4
-4 3 -15 -3 -25 -7 -14 -6 -17 4 -13 7 2 24 -4 37 -16 13 -11 17 -20 10 -20
-7 0 -10 -3 -7 -6 4 -4 13 -1 21 5 12 10 16 8 21 -8 4 -14 15 -21 31 -21 18 0
24 -6 25 -22 l0 -23 9 23 c12 29 18 28 15 -2 -2 -19 1 -23 16 -19 11 3 19 0
19 -7 0 -9 3 -10 14 -1 11 9 15 8 20 -4 4 -11 2 -14 -7 -9 -8 5 -8 2 2 -9 12
-15 31 -15 31 -1 0 3 -5 2 -12 -2 -7 -5 -8 -3 -3 6 6 10 12 9 25 -8 13 -15 20
-18 28 -10 8 8 14 5 21 -13 5 -13 7 -27 5 -30 -2 -3 4 -6 12 -6 10 0 11 4 4
11 -5 5 -10 14 -10 20 0 5 8 0 18 -12 11 -12 23 -18 28 -12 5 5 14 2 22 -6 7
-8 9 -14 5 -14 -4 0 3 -7 15 -16 12 -8 19 -20 16 -26 -4 -7 -2 -8 5 -4 9 6 9
11 0 22 -11 13 -9 14 14 3 23 -10 48 -42 29 -37 -17 4 -53 -15 -49 -26 3 -6
-3 -12 -14 -12 -13 0 -15 3 -7 13 13 16 -4 17 -19 2 -6 -6 -9 -19 -6 -28 3
-12 2 -11 -7 2 -11 17 -13 17 -30 2 -10 -9 -23 -14 -29 -11 -5 4 -12 2 -16 -4
-3 -5 -1 -10 4 -10 6 0 11 -5 11 -12 0 -9 -3 -9 -12 0 -8 8 -17 8 -31 1 -11
-6 -17 -7 -14 -2 3 4 -5 8 -18 8 -13 0 -21 -4 -17 -9 3 -5 -5 -7 -17 -3 -18 4
-20 3 -11 -8 8 -9 8 -15 0 -20 -5 -3 -13 0 -16 9 -3 8 -14 14 -24 13 -10 -1
-17 -4 -15 -7 1 -3 -3 -11 -11 -18 -13 -12 -18 -8 -15 12 1 5 -5 4 -13 -3 -9
-7 -13 -18 -9 -25 3 -6 3 -8 -2 -4 -4 4 -14 3 -21 -3 -9 -7 -17 -4 -28 13 -9
12 -16 17 -16 11 0 -7 -9 -10 -20 -8 -11 2 -24 -4 -31 -13 -9 -15 -10 -14 -6
6 3 12 1 20 -4 16 -5 -3 -9 -13 -9 -23 0 -14 -6 -17 -30 -13 -20 3 -30 0 -30
-8 0 -10 -3 -10 -15 0 -8 7 -22 10 -30 6 -10 -3 -15 1 -16 12 0 12 -3 10 -10
-7 -6 -16 -13 -20 -22 -14 -22 17 -46 22 -53 11 -5 -7 -2 -8 6 -3 9 5 11 4 6
-4 -4 -6 -12 -9 -17 -5 -5 3 -7 9 -5 13 3 4 0 13 -6 21 -8 12 -9 12 -4 -2 4
-14 0 -17 -17 -14 -12 2 -29 0 -39 -5 -13 -7 -15 -5 -11 10 3 10 0 22 -6 25
-7 5 -8 1 -5 -9 5 -12 2 -14 -12 -8 -11 3 -22 11 -26 17 -5 7 -8 3 -8 -9 0
-16 -2 -17 -9 -5 -6 8 -8 17 -5 21 2 4 -8 4 -23 0 -16 -4 -34 -6 -40 -5 -7 1
-18 2 -23 3 -6 0 -10 8 -8 17 2 10 -4 19 -12 21 -13 4 -13 3 0 -6 12 -9 11
-11 -7 -11 -15 0 -23 6 -23 18 -1 15 -2 15 -13 -3 -6 -11 -12 -22 -12 -25 0
-3 -4 -11 -9 -19 -6 -10 -5 -12 2 -7 7 4 12 2 12 -4 0 -6 5 -8 13 -4 9 6 9 5
0 -8 -17 -20 -5 -30 19 -17 11 6 22 8 26 5 3 -3 0 -6 -6 -6 -15 0 -11 -38 6
-45 7 -2 10 0 7 5 -3 6 -1 10 4 10 6 0 11 -10 11 -22 0 -19 2 -20 10 -8 7 11
10 11 10 2 0 -8 5 -10 13 -6 7 5 6 0 -3 -11 -8 -10 -10 -16 -4 -12 6 3 21 -5
33 -19 17 -20 25 -23 36 -14 10 8 15 8 21 -1 5 -8 3 -9 -6 -4 -9 6 -11 4 -5
-5 6 -10 11 -9 22 6 13 17 13 17 9 -6 -2 -14 -9 -24 -16 -22 -6 1 -9 -2 -5 -8
3 -6 12 -7 18 -3 23 14 39 11 45 -9 3 -13 7 -16 12 -8 9 15 30 4 30 -15 0 -14
17 -15 39 -1 10 6 12 5 7 -2 -4 -7 -2 -12 3 -12 6 0 11 -9 11 -21 0 -13 4 -18
12 -13 7 4 8 3 4 -5 -4 -6 -12 -9 -17 -6 -5 4 -9 -1 -9 -9 0 -8 -5 -18 -12
-22 -7 -4 -8 -3 -4 4 10 16 -7 15 -23 0 -11 -11 -12 -10 -6 0 6 11 3 11 -13 1
-12 -7 -18 -17 -15 -23 3 -5 1 -6 -6 -2 -8 5 -9 12 -2 20 7 8 4 12 -10 12 -20
0 -22 -24 -4 -39 6 -5 4 -7 -5 -4 -8 2 -15 9 -15 14 0 6 -3 14 -7 17 -5 3 -6
3 -3 0 9 -13 -16 -45 -28 -37 -7 5 -19 8 -27 7 -8 -1 -20 -2 -27 -3 -7 0 -10
-9 -7 -18 3 -10 -1 -8 -8 5 -8 12 -17 19 -21 16 -11 -11 -8 -26 3 -19 6 4 7
-1 3 -11 -4 -11 -8 -13 -11 -6 -2 7 -8 10 -13 6 -5 -3 -9 3 -10 13 0 14 -2 15
-6 3 -12 -33 -25 -41 -38 -24 -9 14 -14 14 -20 4 -5 -9 -4 -11 3 -6 7 4 12 5
12 2 0 -3 -9 -10 -20 -16 -15 -8 -18 -8 -14 3 3 8 -1 14 -9 14 -9 0 -13 -8 -9
-21 4 -20 3 -20 -13 2 -16 22 -18 22 -30 5 -11 -14 -10 -20 4 -31 14 -11 12
-11 -9 -1 -14 7 -28 17 -32 23 -4 6 -8 0 -8 -14 0 -14 -3 -20 -8 -14 -4 6 -18
10 -32 9 -14 -1 -28 3 -32 9 -5 7 -8 5 -8 -5 0 -12 -12 -16 -55 -17 -30 0 -60
-4 -67 -8 -10 -6 -10 -5 -1 7 9 12 6 14 -17 14 -16 1 -26 -3 -24 -7 3 -5 9 -6
13 -4 4 3 8 -1 8 -8 0 -10 -6 -10 -24 -2 -12 6 -23 16 -23 21 0 6 -5 3 -10 -5
-8 -12 -10 -12 -10 -1 0 11 -3 11 -17 0 -11 -10 -14 -10 -9 -1 4 7 1 12 -9 12
-10 0 -13 5 -9 12 4 7 3 8 -4 4 -7 -4 -12 -2 -12 3 0 6 -4 11 -9 11 -5 0 -8
-8 -7 -17 2 -10 8 -18 14 -18 6 0 14 -3 18 -8 4 -4 0 -7 -8 -7 -9 0 -18 -6
-21 -14 -4 -11 2 -13 25 -11 27 4 28 3 16 -12 -9 -12 -9 -15 0 -9 6 4 12 3 12
-3 0 -5 -6 -12 -12 -14 -7 -3 1 -4 17 -2 17 1 36 0 43 -2 15 -6 16 -30 0 -35
-7 -3 -5 -7 6 -11 9 -4 15 -3 12 2 -3 5 5 8 18 7 13 0 22 -4 19 -8 -2 -5 1 -8
6 -8 6 0 11 -7 11 -16 0 -9 -5 -12 -12 -8 -7 4 -8 3 -4 -5 6 -9 11 -9 22 0 10
8 14 8 14 0 0 -6 5 -11 11 -11 5 0 8 4 5 8 -3 5 2 9 10 9 8 0 13 -6 10 -13 -3
-7 5 -20 16 -31 12 -10 18 -13 15 -7 -8 14 20 27 28 13 4 -5 12 -6 18 -2 7 4
6 -1 -2 -10 -12 -16 -12 -17 5 -11 10 4 25 12 33 18 11 8 13 8 8 -1 -4 -6 -2
-15 3 -18 8 -5 5 -14 -7 -28 -10 -11 -13 -17 -7 -14 7 4 14 1 17 -6 4 -10 -2
-13 -20 -9 -18 3 -24 1 -19 -7 4 -6 4 -11 -1 -10 -19 3 -34 -2 -28 -10 3 -5 0
-13 -7 -18 -19 -11 -39 -13 -32 -2 3 5 0 9 -7 9 -7 0 -9 -8 -6 -21 4 -15 2
-18 -7 -10 -16 13 -27 4 -19 -15 6 -17 -13 -19 -21 -1 -3 9 -8 7 -19 -5 -11
-14 -16 -15 -27 -5 -7 7 -10 7 -7 1 4 -6 0 -20 -8 -30 -8 -11 -14 -14 -15 -6
0 6 -5 12 -11 12 -5 0 -7 -4 -4 -10 3 -5 1 -10 -5 -10 -6 0 -8 -6 -4 -12 4 -7
-3 -4 -17 7 -22 19 -23 19 -9 1 14 -18 13 -19 -3 -13 -10 4 -16 3 -12 -2 3 -5
1 -12 -5 -16 -5 -3 -10 0 -10 7 0 7 -7 2 -16 -10 -10 -15 -20 -20 -27 -14 -7
5 -20 9 -31 9 -18 0 -18 -1 0 -15 18 -14 18 -14 1 -8 -10 3 -23 6 -28 6 -6 0
-7 5 -3 12 4 7 3 8 -5 4 -6 -4 -9 -11 -6 -16 3 -4 -2 -10 -10 -14 -9 -3 -15 0
-15 10 0 8 -5 12 -10 9 -6 -4 -8 -10 -6 -14 3 -4 -1 -8 -9 -8 -8 0 -12 5 -8
10 3 5 -4 4 -16 -2 -15 -8 -21 -9 -21 -1 0 6 -5 8 -12 3 -21 -13 -79 -10 -74
4 7 18 -14 27 -27 14 -9 -9 -8 -11 5 -6 25 10 22 -2 -3 -16 -13 -7 -19 -7 -15
-1 3 6 2 13 -3 17 -6 3 -7 13 -4 23 6 15 5 15 -12 -2 -18 -18 -19 -18 -32 0
-7 10 -13 12 -13 6 0 -7 -7 -12 -15 -12 -8 0 -15 -4 -15 -10 0 -11 22 -9 31 3
3 5 9 2 12 -6 4 -11 0 -15 -14 -12 -23 5 -37 -21 -21 -37 6 -6 12 -6 17 3 5 8
4 10 -3 5 -7 -4 -12 -2 -12 3 0 16 16 13 31 -6 10 -11 10 -14 1 -9 -16 10 -10
-30 8 -47 10 -9 11 -9 6 1 -4 6 -2 12 3 12 6 0 11 -5 11 -11 0 -5 6 -7 13 -3
8 5 8 2 -2 -9 -12 -15 -11 -17 10 -18 13 -1 29 0 34 1 6 1 7 -2 3 -6 -4 -4 -2
-14 4 -23 8 -10 4 -9 -10 3 -12 11 -25 16 -29 13 -3 -4 -1 -7 6 -7 7 0 9 -5 5
-12 -4 -6 -3 -8 4 -4 6 3 13 2 17 -4 4 -6 11 -8 16 -5 5 4 18 0 30 -8 11 -8
16 -16 10 -18 -6 -2 1 -9 14 -16 14 -6 23 -7 19 -2 -3 5 2 6 10 3 9 -3 13 -10
10 -15 -3 -5 3 -6 12 -2 11 4 15 2 11 -4 -4 -6 0 -14 9 -17 12 -5 15 -2 10 9
-3 9 -2 13 4 10 6 -3 10 -14 10 -23 0 -15 2 -15 10 -2 6 10 10 11 10 3 0 -7 7
-13 16 -13 8 0 12 5 9 11 -4 6 2 5 13 -2 14 -9 18 -17 11 -25 -7 -8 -1 -10 21
-8 17 2 29 0 26 -4 -5 -9 23 -9 39 -1 24 13 65 -8 59 -29 -3 -9 2 -6 11 8 16
24 16 24 12 3 -3 -13 0 -26 5 -30 6 -3 8 -1 5 4 -7 11 22 28 31 18 3 -3 0 -5
-6 -5 -7 0 -12 -5 -12 -10 0 -7 7 -7 21 1 15 8 19 8 15 0 -5 -7 2 -11 16 -12
13 0 17 -3 10 -6 -10 -4 -10 -8 -1 -20 7 -8 8 -13 3 -12 -25 4 -36 -2 -31 -20
4 -15 0 -18 -19 -16 -16 1 -24 -3 -24 -13 0 -12 -3 -12 -15 -2 -10 9 -15 9
-15 1 0 -6 5 -11 10 -11 6 0 10 -5 10 -11 0 -6 -6 -9 -14 -6 -8 3 -22 -3 -32
-14 -10 -11 -12 -19 -6 -19 7 0 12 4 12 9 0 12 24 8 42 -6 7 -7 23 -10 33 -8
11 2 26 4 33 4 7 1 10 7 7 14 -4 6 1 3 11 -8 16 -20 16 -20 11 2 -4 16 -1 20
11 16 10 -4 13 -2 8 5 -5 8 -2 10 8 6 9 -3 16 -15 16 -25 0 -10 4 -19 10 -19
5 0 0 -11 -12 -25 -11 -13 -26 -22 -31 -18 -6 3 -7 1 -3 -6 6 -9 11 -9 21 -1
9 8 14 6 19 -5 3 -9 2 -13 -3 -10 -5 3 -12 1 -15 -4 -3 -5 4 -12 17 -15 l22
-6 -25 -15 c-14 -8 -20 -14 -15 -15 6 0 16 -10 24 -22 14 -22 13 -23 -6 -5
-19 17 -21 17 -34 0 -13 -17 -13 -17 5 -3 18 14 19 13 12 -5 -4 -11 -4 -16 0
-12 4 4 13 -5 21 -20 14 -27 12 -39 -6 -28 -6 3 -9 10 -6 15 3 5 1 11 -4 14
-5 4 -12 2 -15 -3 -4 -5 -2 -12 4 -16 6 -4 8 -11 5 -16 -4 -5 -1 -9 4 -9 19 0
12 -32 -8 -37 -20 -5 -20 -5 -1 -26 11 -11 17 -23 14 -26 -4 -3 -9 0 -11 7 -3
6 -9 12 -14 12 -6 0 -8 -4 -4 -9 3 -6 -3 -15 -12 -21 -16 -10 -16 -10 3 -5 14
4 21 1 21 -10 0 -9 -6 -14 -13 -11 -13 5 -13 -19 1 -31 4 -4 5 -2 0 6 -6 10
-4 12 4 7 9 -6 9 -11 -1 -24 -11 -12 -11 -16 0 -20 10 -3 8 -8 -7 -18 -12 -9
-18 -21 -14 -30 4 -12 8 -13 14 -3 4 7 6 16 4 19 -2 4 2 7 11 7 10 0 12 -7 8
-20 -4 -13 -2 -17 5 -13 6 4 11 15 11 26 0 10 7 21 16 24 13 5 14 3 6 -7 -8
-10 -6 -13 8 -13 10 0 16 4 14 8 -3 4 0 8 6 8 6 0 8 5 4 12 -4 7 -3 8 5 4 6
-4 9 -11 7 -15 -3 -4 4 -8 15 -8 10 -1 19 3 19 8 0 6 -5 7 -12 3 -6 -4 -8 -3
-5 4 9 14 36 9 48 -9 7 -11 9 -11 9 -1 0 7 5 10 12 6 7 -4 8 -3 4 5 -4 6 -12
8 -18 5 -7 -4 -8 -2 -4 4 9 15 12 15 30 -4 15 -14 16 -14 16 0 0 9 -5 16 -12
16 -6 0 -9 3 -5 6 8 8 36 -9 35 -21 -1 -5 7 -11 18 -12 18 -3 18 -2 -1 6 -11
6 -14 10 -6 10 11 1 11 4 0 18 -12 15 -12 16 1 8 22 -13 92 -14 109 -1 11 8
13 8 8 0 -4 -7 0 -14 8 -18 8 -3 14 -2 14 2 -4 22 3 23 20 3 16 -18 20 -19 25
-6 3 9 2 13 -4 10 -6 -3 -10 -2 -10 4 0 5 9 9 20 8 14 -1 19 -6 15 -17 -3 -9
1 -8 10 4 8 11 15 14 15 7 0 -7 5 -9 13 -4 6 4 21 8 32 10 11 1 14 -1 8 -3 -7
-3 -13 -12 -13 -20 0 -9 4 -13 9 -10 14 9 2 -37 -21 -78 -8 -15 -7 -18 6 -13
8 3 18 1 22 -5 5 -7 2 -8 -6 -3 -10 6 -12 3 -8 -13 4 -12 3 -20 -1 -17 -5 2
-13 -7 -19 -20 -8 -18 -8 -26 0 -31 6 -4 8 -3 4 4 -3 6 -2 13 3 16 5 4 8 -2 6
-11 -2 -10 -4 -22 -4 -26 -1 -5 -5 -6 -10 -2 -5 3 -13 0 -17 -6 -4 -8 -3 -9 4
-5 7 4 12 2 12 -4 0 -6 4 -8 10 -5 6 3 7 -1 4 -9 -3 -9 -10 -13 -15 -10 -5 3
-6 -3 -2 -12 5 -13 3 -15 -7 -9 -9 5 -11 4 -6 -4 5 -7 13 -9 20 -4 7 4 3 -1
-9 -11 -16 -16 -17 -18 -3 -13 23 8 23 -2 0 -20 -9 -8 -11 -12 -4 -8 15 7 16
-11 2 -20 -8 -5 -7 -11 1 -21 9 -11 9 -17 0 -28 -9 -11 -9 -15 1 -20 7 -3 2
-3 -12 0 -14 4 -22 3 -18 -1 4 -5 2 -15 -5 -24 -10 -14 -10 -14 4 -3 14 10 19
9 30 -5 13 -17 13 -17 -5 -3 -18 14 -19 13 -14 -8 5 -19 4 -21 -8 -11 -8 6
-17 9 -21 5 -3 -3 -2 -6 4 -6 6 0 14 -7 17 -16 5 -13 3 -14 -7 -6 -10 9 -13 4
-15 -19 -2 -22 1 -28 10 -23 10 5 10 4 1 -6 -10 -11 -15 -11 -30 1 -16 12 -17
12 -6 -2 7 -9 9 -20 5 -24 -4 -5 -2 -5 5 -1 6 3 15 1 19 -5 4 -7 3 -10 -2 -7
-5 3 -18 -6 -28 -20 -11 -14 -14 -22 -6 -17 8 5 11 3 8 -6 -3 -8 -10 -14 -16
-14 -5 0 -14 -5 -19 -10 -4 -6 -4 -7 1 -3 5 4 17 3 27 -3 13 -6 25 -6 37 0 13
7 23 6 32 -2 10 -9 11 -9 6 1 -4 7 -1 15 8 18 9 3 16 11 16 16 0 6 -6 5 -15
-2 -9 -7 -15 -8 -15 -2 0 15 26 22 38 10 8 -8 14 -4 21 13 5 14 17 31 27 39
10 8 15 10 12 4 -4 -5 7 -15 25 -22 l32 -12 -25 21 c-14 11 -20 18 -14 15 6
-3 20 1 30 9 23 17 34 19 34 4 0 -5 -5 -7 -12 -3 -7 5 -8 3 -3 -6 6 -10 11 -9
22 5 7 11 13 13 13 7 0 -9 5 -10 19 -2 26 13 52 14 31 0 -12 -7 -10 -9 7 -8
13 1 19 7 16 15 -4 9 0 11 11 7 9 -3 13 -11 10 -16 -4 -6 5 -2 20 7 24 16 31
14 27 -9 -1 -5 5 -3 14 4 16 13 15 15 -1 27 -10 7 -13 13 -7 13 18 0 44 -31
36 -43 -3 -7 3 -3 15 7 25 21 31 36 7 16 -8 -7 -15 -9 -15 -5 0 4 8 13 17 20
14 10 22 10 42 -4 14 -9 22 -11 18 -4 -4 6 -3 14 3 18 5 3 10 -1 10 -9 0 -9 5
-16 11 -16 5 0 7 4 4 10 -4 6 1 7 11 3 14 -5 13 -8 -7 -19 -29 -16 -21 -18 18
-4 26 9 27 9 9 -5 -11 -8 -21 -22 -22 -30 -3 -17 12 -20 21 -5 3 5 1 10 -6 10
-7 0 -10 3 -6 6 3 3 10 3 15 0 6 -3 3 -20 -6 -40 -9 -19 -19 -33 -23 -30 -4 2
-11 -1 -15 -7 -4 -7 -3 -9 4 -5 7 4 10 -1 9 -14 -1 -11 -6 -20 -12 -20 -6 0
-6 -3 1 -8 20 -13 22 -37 5 -56 -9 -11 -10 -16 -3 -12 16 9 13 -24 -3 -37 -5
-5 -1 -6 11 -3 18 5 20 2 18 -26 -1 -18 -11 -38 -21 -46 -15 -12 -15 -14 -1
-9 12 4 16 1 15 -13 -1 -10 -4 -18 -7 -18 -18 2 -23 -4 -10 -12 13 -9 13 -10
0 -10 -13 0 -13 -1 0 -10 13 -8 12 -10 -2 -10 -10 0 -19 -6 -19 -12 -1 -7 -2
-17 -4 -23 -1 -5 -3 -14 -3 -19 -1 -5 -9 -2 -19 5 -15 13 -15 12 -5 -8 11 -20
10 -21 -10 -18 -23 4 -23 4 -3 -12 14 -11 15 -14 3 -10 -23 8 -31 -4 -11 -18
15 -11 13 -12 -15 -9 -27 3 -30 1 -20 -10 10 -10 15 -11 21 -2 6 7 7 6 4 -4
-2 -9 -14 -14 -28 -13 -13 1 -18 0 -12 -3 9 -4 10 -11 3 -24 -7 -13 -7 -21 2
-26 7 -4 8 -3 4 4 -4 7 -2 12 3 12 6 0 11 -5 11 -11 0 -7 7 -8 17 -4 10 4 23
8 30 9 7 1 21 10 32 20 12 11 25 15 33 10 9 -5 8 -2 -2 11 -14 17 -14 18 9 5
21 -11 23 -10 18 5 -5 11 -3 15 5 12 7 -2 12 -10 10 -16 -1 -7 2 -10 8 -6 6 3
8 10 6 14 -3 4 5 13 16 20 19 12 20 11 14 -5 -6 -17 -6 -17 14 1 12 11 20 13
20 6 0 -7 5 -9 10 -6 6 4 8 10 5 15 -3 4 3 14 13 21 15 13 16 12 3 -3 -9 -13
-10 -18 -2 -18 7 0 9 -6 5 -12 -5 -10 -4 -10 6 -1 7 6 19 9 26 6 8 -3 14 0 14
5 0 6 -10 9 -21 7 -12 -3 -18 -1 -15 3 4 4 17 7 29 7 13 1 21 6 19 14 -1 8 2
10 10 5 18 -11 38 -14 38 -5 0 4 7 8 15 8 8 0 12 -4 10 -8 -3 -4 2 -10 11 -13
8 -3 13 -2 10 3 -3 5 1 12 10 15 12 5 15 2 10 -10 -5 -13 -4 -14 7 -6 7 6 23
10 35 7 12 -2 25 1 28 7 4 7 2 8 -4 4 -7 -4 -12 -2 -12 4 0 7 7 9 16 6 9 -3
18 -6 20 -6 3 0 2 -5 -2 -12 -4 -7 -3 -8 4 -4 6 4 9 13 6 20 -3 8 0 17 7 22 8
4 10 3 5 -4 -4 -7 -2 -20 3 -29 7 -12 10 -14 11 -4 0 11 3 11 18 0 15 -13 16
-12 3 3 -7 10 -18 15 -25 11 -6 -3 -7 -2 -3 2 14 16 42 15 56 -3 13 -16 13
-16 7 2 -4 13 -2 17 8 13 8 -3 17 -1 20 6 3 8 5 8 5 -2 1 -10 7 -10 27 4 15 9
23 12 19 5 -5 -9 -1 -10 14 -5 12 3 21 3 20 -2 -4 -26 2 -44 14 -37 9 6 9 5 0
-7 -10 -12 -10 -18 0 -29 10 -12 9 -12 -4 -2 -13 10 -19 8 -33 -6 -16 -19 -13
-33 7 -28 7 2 9 1 4 -1 -4 -3 -5 -9 -2 -14 4 -5 0 -6 -7 -4 -10 4 -14 -2 -14
-19 0 -14 4 -22 8 -20 4 3 8 0 8 -5 0 -6 -6 -11 -12 -11 -8 0 -9 -3 -3 -8 6
-4 11 -16 12 -27 1 -20 1 -20 -13 -1 -8 11 -14 15 -14 9 0 -7 7 -19 16 -27 8
-9 11 -16 6 -16 -18 0 -21 -29 -6 -45 9 -8 11 -15 5 -15 -6 0 -11 -11 -11 -24
0 -14 -5 -28 -10 -31 -8 -5 -8 -11 -1 -19 6 -7 8 -16 4 -19 -3 -4 0 -14 8 -23
12 -15 11 -16 -11 -10 -15 5 -20 4 -13 -1 18 -13 24 -73 8 -66 -7 2 -16 -1
-21 -8 -5 -8 -3 -10 7 -4 11 6 12 5 2 -6 -7 -7 -13 -24 -13 -39 0 -15 -3 -20
-8 -13 -4 7 -13 9 -21 4 -10 -7 -10 -9 3 -14 9 -4 13 -15 10 -30 -4 -26 20
-45 32 -25 4 7 3 8 -4 4 -7 -4 -12 -2 -12 5 0 6 8 9 20 6 16 -4 18 -2 10 13
-7 13 -6 21 2 26 6 4 8 3 4 -4 -4 -7 2 -10 16 -8 34 4 59 17 52 27 -3 5 0 9 5
9 6 0 11 -5 11 -11 0 -5 4 -8 9 -5 5 4 12 0 14 -6 4 -10 6 -10 6 0 1 7 6 10
13 6 7 -4 8 -3 4 5 -4 6 -11 9 -16 6 -5 -3 -12 0 -16 6 -4 7 -3 9 4 5 5 -3 13
0 15 6 4 10 6 10 6 0 1 -10 6 -10 21 -2 14 7 20 7 20 0 0 -5 -4 -10 -10 -10
-5 0 -10 -5 -10 -12 0 -6 12 -1 27 13 14 13 23 18 18 10 -6 -11 -4 -13 8 -8
49 20 51 20 27 -2 l-25 -23 33 22 c17 12 32 17 32 12 0 -6 7 -12 14 -15 10 -4
13 -1 10 7 -3 7 2 13 10 13 8 0 13 -3 11 -7 -2 -4 2 -7 10 -7 8 0 12 5 8 10
-3 5 4 6 17 2 17 -6 21 -4 15 6 -5 8 1 6 13 -5 19 -17 22 -17 37 -2 20 19 26
20 19 3 -3 -8 2 -14 10 -14 8 0 12 7 9 16 -3 11 0 10 11 -3 15 -18 20 -15 17
9 -1 6 6 1 14 -9 11 -15 15 -16 15 -5 0 8 -3 19 -7 25 -5 5 2 -1 14 -13 24
-25 39 -31 27 -10 -4 7 -3 9 2 4 5 -5 10 -13 10 -18 1 -5 2 -10 3 -11 2 -2 4
-14 7 -28 3 -19 2 -21 -6 -10 -8 13 -11 13 -22 1 -10 -10 -10 -12 0 -7 7 4 12
1 12 -8 0 -9 -5 -16 -11 -16 -5 0 -7 -5 -3 -11 5 -8 9 -8 14 1 5 9 9 9 14 1 4
-6 2 -11 -3 -11 -6 0 -11 -7 -11 -16 0 -8 4 -13 8 -10 5 3 9 -1 9 -8 0 -7 -6
-13 -13 -13 -7 0 -10 5 -7 11 3 6 2 7 -2 3 -11 -9 -16 -39 -6 -33 4 3 13 -5
20 -17 8 -12 10 -19 6 -15 -4 4 -13 2 -20 -5 -10 -9 -9 -14 3 -23 12 -9 12
-13 2 -19 -9 -6 -11 -4 -5 5 6 9 4 11 -5 5 -10 -6 -9 -11 5 -22 11 -7 13 -13
7 -13 -9 0 -10 -5 -2 -19 15 -29 12 -35 -7 -20 -15 11 -16 11 -5 -1 14 -17 16
-34 2 -25 -6 3 -7 -1 -4 -9 5 -13 9 -12 23 6 14 16 20 18 26 8 5 -8 4 -11 -3
-6 -10 6 -22 -17 -28 -52 -1 -7 6 -18 17 -25 10 -6 19 -15 19 -20 0 -4 -3 -6
-7 -4 -5 3 -8 -6 -8 -19 0 -15 5 -22 12 -20 7 3 15 0 19 -6 4 -6 3 -8 -4 -4
-6 3 -13 2 -17 -4 -3 -5 -1 -10 5 -10 7 0 10 -6 7 -12 -2 -7 -9 -12 -14 -11
-5 1 -10 -5 -10 -12 0 -10 4 -11 11 -6 7 6 19 4 30 -5 17 -12 18 -14 3 -14 -9
0 -17 -5 -17 -11 0 -5 5 -7 10 -4 5 3 10 1 10 -5 0 -6 5 -8 10 -5 6 3 10 1 10
-4 0 -6 -7 -11 -15 -11 -8 0 -15 -4 -15 -8 0 -12 22 -32 34 -32 6 0 2 7 -8 15
-11 8 -16 15 -10 15 5 0 17 -7 27 -14 13 -10 15 -15 5 -18 -10 -4 -11 -11 -1
-38 9 -25 10 -37 2 -47 -8 -9 -8 -13 0 -13 6 0 11 5 11 10 0 6 5 10 11 10 6 0
8 -9 3 -22 -6 -19 -4 -21 7 -11 12 10 15 8 15 -7 0 -10 -3 -17 -6 -15 -4 2 -7
-2 -7 -10 0 -8 3 -14 6 -13 18 2 33 -3 28 -9 -4 -3 2 -13 14 -21 19 -13 19
-15 4 -39 l-16 -24 24 16 c19 12 27 13 33 4 4 -7 3 -9 -3 -6 -6 4 -13 0 -17
-8 -3 -8 0 -17 6 -21 7 -5 8 -2 4 7 -4 8 -1 6 7 -3 8 -10 16 -15 19 -13 3 3 4
-6 2 -20 -2 -20 1 -25 12 -21 11 4 12 2 4 -13 -7 -14 -6 -22 5 -31 8 -7 12
-16 9 -21 -3 -5 0 -9 5 -9 15 0 14 13 -1 29 -11 11 -9 12 7 7 11 -3 27 -1 35
4 13 8 13 10 1 10 -12 0 -12 3 -3 12 15 15 15 28 1 28 -5 0 -8 -4 -4 -9 3 -5
1 -12 -5 -16 -6 -4 -7 -11 -4 -17 4 -6 2 -8 -4 -5 -8 6 -10 42 -2 42 7 0 6 36
-1 41 -5 3 -7 10 -3 15 3 5 10 7 15 3 5 -3 7 -10 4 -15 -10 -15 2 -10 16 8 10
12 10 14 1 9 -11 -7 -14 -3 -26 37 -6 21 -6 27 1 27 4 0 8 -7 9 -16 4 -29 12
-26 10 5 -1 29 -7 36 -29 32 -5 -1 -6 3 -2 9 4 6 15 8 25 5 10 -3 21 -2 24 3
3 6 0 9 -7 8 -6 0 -13 4 -14 9 -2 6 1 10 6 10 5 0 13 3 17 7 3 4 -2 6 -13 4
-27 -6 -50 9 -28 18 9 3 13 11 9 17 -4 8 -3 9 5 5 6 -4 9 -12 6 -17 -3 -5 1
-6 10 -2 11 4 13 8 5 13 -6 4 -8 15 -3 26 6 17 5 17 -10 5 -23 -18 -21 -9 3
19 16 19 18 26 7 38 -9 13 -9 14 1 8 7 -4 12 -1 12 9 0 10 -5 13 -12 9 -7 -4
-8 -3 -4 4 4 7 14 12 22 12 8 0 14 4 14 9 0 6 -9 8 -20 6 -12 -2 -18 0 -15 6
4 5 11 6 17 3 7 -5 9 -1 5 9 -4 10 1 22 14 31 15 10 17 16 8 22 -9 5 -6 10 9
15 19 7 20 12 11 36 -8 23 -8 26 2 16 18 -18 25 -16 26 8 2 26 21 49 42 50 9
0 11 3 4 5 -7 3 -22 0 -35 -6 -22 -11 -22 -10 -4 4 11 9 24 16 29 16 5 0 3 7
-4 17 -13 15 -12 15 9 4 18 -10 22 -9 22 4 0 10 -5 13 -12 9 -7 -4 -9 -3 -5 1
12 13 37 15 37 2 0 -5 3 -8 6 -5 3 4 1 15 -5 26 -9 17 -8 19 9 15 11 -3 17
-10 13 -16 -3 -6 -1 -7 5 -3 6 4 9 13 5 21 -3 9 0 21 6 29 6 7 8 16 4 19 -3 4
-4 7 -1 7 3 0 12 -8 19 -17 12 -14 12 -16 0 -8 -10 5 -12 4 -7 -3 4 -7 2 -12
-5 -12 -7 0 -9 -3 -5 -8 4 -4 19 7 33 23 14 17 22 25 19 18 -3 -6 -1 -13 6
-15 6 -2 12 -12 14 -21 1 -9 -2 -15 -7 -11 -5 3 -7 10 -4 15 10 16 -2 10 -16
-9 -7 -9 -9 -14 -5 -10 14 12 38 -12 27 -26 -7 -8 -3 -12 12 -13 18 -2 19 0 7
8 -13 9 -13 10 0 6 9 -2 14 -13 12 -27 -3 -16 0 -20 10 -14 9 5 8 2 -2 -11
-12 -15 -12 -17 -1 -10 11 6 13 4 7 -10 -6 -18 -6 -18 16 1 14 12 18 13 10 3
-10 -13 -9 -19 3 -29 8 -7 12 -16 10 -21 -3 -4 3 -13 12 -19 16 -10 16 -11 1
-6 -10 3 -20 0 -24 -7 -4 -7 -4 -9 1 -5 14 13 45 -11 38 -29 -5 -12 -3 -14 8
-8 12 8 12 6 0 -8 -12 -15 -11 -17 3 -17 9 0 16 -5 16 -11 0 -5 -4 -7 -10 -4
-6 3 -7 -1 -4 -9 3 -9 10 -16 16 -16 5 0 6 5 2 12 -5 8 0 9 14 6 12 -4 20 -2
17 2 -3 5 -1 11 4 15 6 3 8 12 4 20 -3 10 1 15 13 16 12 0 14 3 6 6 -7 3 -19
-1 -28 -7 -8 -7 -17 -10 -21 -6 -3 3 -1 6 5 6 7 0 12 14 12 31 0 21 -4 28 -12
23 -9 -5 -9 -2 1 9 15 18 26 23 16 7 -4 -6 1 -7 11 -3 10 4 13 8 7 10 -7 3 -9
12 -6 21 5 14 3 15 -8 5 -21 -20 -30 -15 -12 7 13 15 20 17 31 8 7 -7 4 5 -8
25 -12 20 -19 37 -15 37 4 0 1 8 -6 18 -13 15 -12 16 3 3 10 -7 16 -17 13 -21
-3 -4 2 -13 9 -19 11 -9 14 -9 12 1 -1 7 -4 18 -7 23 -4 6 -5 24 -3 40 2 17 5
44 7 60 2 17 -2 33 -7 37 -7 5 -7 8 2 8 6 0 12 12 12 26 0 14 4 23 10 19 6 -4
7 -11 4 -17 -4 -7 -2 -8 4 -4 9 5 9 13 1 27 -9 17 -13 18 -27 7 -15 -12 -16
-11 -3 5 9 11 22 16 35 12 12 -3 15 -2 8 1 -6 3 -9 11 -5 17 11 18 12 38 2 31
-5 -3 -7 -9 -5 -13 3 -4 -2 -8 -10 -8 -11 0 -10 5 6 22 22 24 27 40 8 29 -10
-6 -10 -5 -1 8 7 8 9 19 5 23 -4 5 -1 5 6 1 7 -4 9 -13 6 -19 -4 -7 2 -4 12 6
17 16 17 20 4 30 -14 11 -14 14 2 30 10 9 20 17 23 17 3 0 7 0 10 0 3 0 0 10
-6 23 -9 18 -9 20 2 10 7 -7 18 -13 23 -13 6 0 5 4 -3 9 -16 10 -5 34 12 25 7
-3 4 1 -5 8 -15 13 -15 15 5 28 21 12 21 12 7 -6 -8 -10 -10 -16 -6 -12 5 4
16 2 25 -5 14 -11 14 -10 2 6 -7 9 -10 17 -6 17 4 0 2 7 -5 15 -10 12 -8 14 8
10 12 -2 29 7 43 22 13 15 19 23 12 19 -6 -3 -14 -2 -18 4 -3 5 1 10 9 10 9 0
16 4 16 9 0 5 11 9 25 9 14 0 25 -5 25 -10 0 -5 5 -6 12 -2 7 4 8 3 4 -5 -4
-6 -13 -9 -19 -5 -7 3 -3 -2 7 -10 11 -9 15 -16 8 -16 -7 0 -6 -7 5 -19 9 -11
21 -17 26 -14 5 3 4 -5 -3 -17 -11 -20 -10 -22 4 -17 9 4 15 3 15 -1 -1 -4 -1
-15 0 -26 1 -14 4 -16 14 -7 11 8 13 5 9 -19 -3 -19 0 -30 7 -30 7 0 9 5 5 12
-4 7 -3 8 4 4 16 -9 15 -11 -5 -32 -16 -16 -16 -16 2 -11 11 4 27 2 35 -4 12
-9 12 -10 -4 -5 -15 5 -17 4 -8 -7 7 -8 9 -17 5 -21 -4 -4 0 -4 10 0 21 8 22
0 2 -20 -14 -13 -13 -15 2 -15 52 -2 57 -4 39 -16 -14 -11 -14 -14 6 -31 21
-17 21 -17 8 -1 -12 16 -12 20 1 28 8 5 18 9 22 9 5 0 1 7 -7 16 -20 19 -20
25 -3 18 8 -3 14 2 14 10 0 8 -4 13 -9 10 -4 -3 -8 4 -8 16 0 14 4 19 13 14 9
-6 9 -4 -1 8 -9 11 -9 18 -2 21 6 3 5 4 -2 3 -7 -2 -13 -8 -13 -14 0 -5 -2
-12 -5 -14 -3 -2 -4 -1 -2 1 1 2 -6 14 -15 25 -12 14 -13 17 -3 9 13 -10 18
-8 30 10 12 20 12 21 -2 9 -13 -10 -17 -9 -23 5 -14 33 -14 42 3 35 10 -4 12
-7 4 -10 -7 -2 -9 -8 -6 -14 4 -6 10 -5 15 3 5 9 0 22 -14 38 -12 13 -16 21
-9 17 8 -5 12 0 12 14 0 14 -4 19 -12 14 -9 -5 -9 -2 1 9 9 12 10 17 2 17 -7
0 -9 5 -6 10 4 6 9 8 13 6 4 -2 7 13 8 34 0 30 -3 37 -15 33 -13 -4 -13 -3 -3
5 17 12 17 22 0 34 -10 8 -10 9 2 5 8 -2 14 -9 13 -14 -1 -5 5 -10 13 -10 10
0 11 4 4 11 -16 16 -12 26 7 19 15 -6 16 -5 3 9 -11 11 -17 12 -22 5 -4 -7 -6
-2 -5 11 1 15 6 21 15 17 11 -4 10 2 -3 22 -15 22 -15 25 -3 15 11 -9 18 -10
23 -2 3 5 1 10 -4 10 -6 0 -11 5 -11 11 0 5 6 7 13 3 7 -5 6 0 -3 11 -8 10
-10 16 -4 12 7 -4 15 0 18 9 4 10 2 13 -6 8 -7 -4 -8 -3 -4 4 4 7 1 12 -6 12
-8 0 -6 5 5 11 10 6 14 15 10 22 -4 8 -1 7 9 -1 13 -10 18 -10 24 -1 4 7 3 9
-3 6 -6 -4 -13 0 -17 8 -3 8 -2 14 2 14 19 -3 25 2 12 11 -13 8 -13 10 2 10
22 0 43 36 27 46 -9 5 -7 11 6 20 10 7 15 20 12 28 -3 8 2 20 11 28 13 11 15
11 7 -2 -8 -13 -6 -13 7 -2 9 8 14 20 11 28 -4 10 0 12 13 7 12 -4 15 -3 10 5
-4 7 -2 12 4 12 6 0 9 4 6 9 -3 5 3 11 14 14 12 3 20 14 20 26 0 12 5 21 11
21 5 0 7 -6 3 -12 -4 -7 2 -5 13 5 18 15 22 16 32 3 7 -8 20 -12 28 -9 12 5
14 3 7 -8 -4 -8 -10 -23 -12 -34 -3 -20 -3 -20 12 0 8 11 18 17 22 12 4 -4 2
-7 -4 -7 -7 0 -12 -9 -12 -21 0 -14 5 -19 15 -16 8 4 17 1 21 -5 4 -7 3 -8 -4
-4 -7 4 -12 3 -12 -3 0 -5 6 -12 13 -14 9 -4 9 -6 -1 -6 -9 -1 -10 -6 -2 -20
7 -14 6 -21 -3 -25 -6 -3 -3 -4 9 -1 13 4 26 -1 35 -12 13 -16 12 -17 -2 -5
-14 10 -18 10 -23 -5 -4 -10 -4 -14 0 -11 8 8 34 -16 34 -31 0 -6 -5 -11 -11
-11 -6 0 -4 -7 5 -15 20 -21 31 -19 15 2 -13 16 -12 17 4 4 12 -10 14 -17 7
-26 -8 -9 -3 -17 17 -31 16 -10 32 -17 37 -16 5 2 6 -4 2 -13 -3 -10 -2 -14 5
-10 6 4 8 13 5 21 -3 7 3 18 12 24 16 11 16 11 0 6 -15 -4 -18 1 -18 28 0 19
-5 36 -12 38 -7 3 -5 7 6 11 10 4 15 3 11 -3 -3 -6 1 -7 10 -4 17 7 15 14 -7
17 -7 2 -14 7 -15 12 0 6 3 9 8 8 5 -2 9 4 9 12 0 9 -6 12 -17 9 -11 -4 -14
-2 -8 3 16 13 19 46 3 38 -10 -6 -11 -5 0 6 14 15 17 43 3 35 -4 -3 -1 10 7
29 9 19 19 32 24 29 4 -3 5 1 2 9 -3 8 -1 18 5 22 6 3 11 11 11 18 0 6 -6 3
-13 -7 -12 -16 -17 -17 -33 -7 -15 10 -15 11 -2 7 10 -3 20 -1 23 4 4 6 2 10
-3 10 -4 0 -8 14 -8 30 0 26 3 29 20 24 12 -3 16 -2 10 3 -6 4 -13 18 -16 30
-5 17 -2 20 11 15 14 -5 14 -4 1 13 -12 15 -12 17 -1 10 11 -6 13 -4 8 8 -3 9
-1 19 5 23 6 4 8 3 4 -4 -3 -6 -1 -14 6 -18 7 -4 10 -4 6 1 -4 4 0 24 8 44 9
20 17 41 18 48 1 7 6 16 11 20 4 4 5 3 1 -4 -11 -20 9 -23 22 -3 9 14 9 21 0
26 -7 5 -8 3 -3 -6 5 -9 4 -11 -3 -6 -18 11 -15 16 18 27 31 11 33 32 2 23
-15 -5 -15 -5 1 6 9 6 22 8 29 4 6 -4 8 -3 5 3 -4 6 2 18 13 28 11 10 17 22
14 26 -3 5 0 9 7 9 7 0 4 7 -7 16 -19 15 -19 15 1 6 11 -5 28 -8 39 -6 14 2
16 0 7 -9 -16 -16 -13 -27 6 -20 12 5 14 3 7 -8 -14 -22 -15 -44 -1 -30 16 16
23 14 24 -9 1 -11 -2 -18 -8 -15 -15 10 -10 -2 8 -16 11 -10 14 -10 9 -1 -4 6
-2 12 3 12 10 0 16 -30 12 -54 -1 -5 5 -4 13 3 12 10 14 9 9 -11 -4 -19 -3
-20 7 -8 10 13 11 11 7 -7 -4 -17 -1 -20 12 -15 14 5 14 4 2 -11 -9 -11 -10
-17 -2 -17 6 0 11 -9 11 -21 0 -15 4 -19 16 -15 8 3 25 1 36 -5 15 -8 19 -8
13 0 -4 7 -1 18 5 26 10 12 10 15 0 15 -10 0 -10 3 0 15 7 8 8 15 3 15 -11 0
-11 60 0 77 4 6 2 15 -4 19 -8 5 -7 9 2 14 10 7 10 12 -2 26 -8 10 -9 15 -2
11 6 -4 13 -4 16 0 2 5 2 3 1 -4 -2 -6 3 -14 11 -17 10 -4 11 2 5 25 -5 17 -5
29 1 29 5 0 9 4 9 10 0 5 -8 7 -17 4 -12 -4 -10 1 7 16 20 18 21 21 6 16 -19
-7 -19 -6 -1 14 14 15 15 20 4 20 -12 0 -12 2 0 9 11 7 11 9 0 14 -9 4 -7 6 5
6 18 1 18 2 2 20 -11 12 -13 21 -7 25 5 4 15 -2 21 -11 10 -17 10 -16 8 2 -2
11 -7 23 -13 27 -6 5 -5 12 4 20 8 7 11 8 8 2 -3 -6 1 -11 9 -11 10 0 11 4 4
11 -13 13 -13 46 1 46 5 0 7 5 4 10 -4 6 -12 8 -18 4 -7 -3 -3 2 7 10 17 14
15 20 -5 18 -4 -1 -2 9 4 22 8 16 18 23 30 20 15 -2 16 0 7 11 -9 10 -7 16 7
24 10 6 12 11 6 11 -7 0 -13 5 -13 10 0 7 6 7 19 0 17 -8 19 -7 17 14 -3 28
18 61 34 51 6 -4 11 -1 9 6 -3 26 1 39 12 39 8 0 8 -4 0 -14 -9 -11 -9 -16 0
-22 7 -4 9 -3 5 4 -3 6 -1 14 5 17 5 4 8 13 5 21 -3 8 1 14 10 14 9 0 12 -5 8
-12 -4 -6 -3 -8 4 -5 5 4 9 18 8 31 -2 19 1 23 16 21 13 -3 18 1 16 13 -2 12
3 16 16 14 10 -2 15 1 12 7 -4 6 2 8 14 6 17 -3 19 -1 10 15 -8 15 -7 17 10
13 11 -3 17 -10 14 -17 -3 -6 6 2 21 18 16 17 24 35 20 45 -5 13 -4 14 6 4 14
-14 33 -18 25 -5 -3 4 8 7 24 6 26 -2 28 0 20 16 -8 15 -6 17 10 13 11 -3 17
-10 13 -16 -3 -6 -1 -7 6 -3 9 6 9 11 1 21 -8 10 -4 12 20 9 22 -3 29 0 25 9
-4 6 1 3 9 -7 12 -15 16 -16 16 -5 0 11 10 15 33 14 32 -2 81 25 72 39 -3 3 1
1 7 -4 10 -9 10 -13 -2 -20 -8 -5 -10 -10 -4 -10 6 0 17 7 24 15 7 8 18 15 24
14 7 0 6 -2 -1 -6 -7 -2 -13 -9 -13 -14 0 -6 9 -5 21 1 28 15 61 21 54 9 -9
-13 9 -11 24 4 11 10 13 10 7 0 -7 -13 0 -16 36 -16 10 0 15 -6 13 -16 -2 -11
4 -17 15 -17 10 0 16 4 14 8 -3 4 -1 8 4 8 5 0 12 -9 15 -20 3 -13 10 -18 21
-14 12 5 15 2 10 -11 -6 -15 -4 -16 13 -7 24 13 37 4 22 -14 -8 -9 -5 -11 10
-7 13 3 21 1 21 -6 0 -7 -5 -9 -12 -5 -7 4 -8 3 -4 -5 4 -6 18 -9 32 -7 14 3
22 1 19 -5 -4 -5 -10 -7 -15 -4 -5 3 -11 2 -14 -3 -2 -4 4 -9 15 -9 31 -3 48
-21 41 -45 -3 -13 -1 -19 5 -15 6 4 14 0 17 -9 5 -12 2 -15 -9 -10 -9 3 -14 2
-10 -3 3 -5 -1 -12 -7 -15 -7 -4 -3 -4 10 -2 18 3 21 1 13 -8 -6 -7 -7 -17 -3
-21 4 -5 1 -5 -5 -1 -9 5 -13 0 -13 -13 0 -12 -5 -21 -11 -21 -5 0 -7 5 -3 12
4 7 3 8 -5 4 -9 -6 -9 -11 1 -24 8 -10 9 -13 1 -9 -6 4 -15 2 -20 -5 -11 -18
-13 -39 -3 -33 5 3 12 0 16 -6 4 -7 3 -9 -3 -6 -12 8 -55 -21 -48 -33 8 -12
35 -6 46 11 5 9 9 10 9 2 0 -13 -17 -26 -38 -29 -8 -2 -17 -6 -20 -10 -4 -4 1
-4 11 -1 9 4 17 3 17 -1 0 -5 11 -8 24 -8 17 0 22 4 18 16 -5 13 -4 13 13 0
17 -14 18 -14 5 10 -12 23 -12 24 4 11 9 -8 16 -10 15 -5 -4 21 2 28 11 14 8
-13 10 -12 10 3 0 14 4 16 19 8 14 -8 22 -7 32 7 13 15 12 16 -3 4 -9 -8 -19
-9 -22 -4 -3 6 2 12 12 15 9 2 25 8 35 12 10 4 17 3 17 -5 0 -6 -4 -8 -10 -5
-6 3 -7 -1 -3 -10 4 -12 8 -13 13 -5 4 7 12 10 18 6 6 -3 14 -1 18 5 5 8 3 9
-7 4 -8 -5 -10 -4 -6 0 4 5 15 10 23 11 11 2 14 -3 11 -17 -3 -10 -1 -17 3
-14 12 7 31 -30 22 -40 -4 -5 -1 -5 6 -1 8 5 9 13 2 25 -5 10 -6 22 -2 26 4 5
0 5 -8 0 -12 -6 -13 -5 -3 5 16 17 26 8 27 -27 1 -16 5 -33 9 -40 5 -8 0 -9
-15 -6 -23 5 -23 5 -3 -12 17 -14 17 -16 3 -11 -10 3 -18 1 -18 -4 0 -6 5 -10
11 -10 5 0 8 -4 4 -10 -3 -5 -13 -6 -23 -3 -15 6 -15 5 1 -11 17 -18 17 -19 0
-32 -10 -8 -13 -14 -8 -13 24 3 27 -2 9 -16 -19 -15 -19 -15 1 -8 20 7 20 7 2
-21 l-18 -27 24 16 c17 11 27 13 32 6 6 -11 5 -12 -14 -15 -22 -3 -22 -16 -1
-16 22 0 23 -1 5 -13 -12 -10 -14 -16 -7 -21 7 -4 17 -4 23 0 8 5 8 1 0 -14
-10 -19 -9 -20 14 -16 14 2 25 0 25 -6 0 -5 5 -10 12 -10 6 0 1 12 -13 26 -22
25 -22 26 -3 16 18 -10 21 -9 20 6 0 9 5 16 12 14 8 -1 11 2 7 8 -4 7 -13 6
-28 -1 -21 -12 -21 -11 -4 8 9 11 14 23 10 27 -4 4 3 9 15 13 18 4 20 8 11 20
-10 11 -8 12 16 3 24 -9 26 -9 16 4 -10 11 -6 18 21 37 18 13 34 23 36 21 1
-1 10 -2 20 -2 14 0 15 2 2 10 -13 8 -12 10 3 10 11 0 15 4 11 12 -4 6 -3 8 4
4 6 -3 13 -2 17 4 4 6 11 8 16 4 6 -3 13 3 16 15 3 11 9 18 14 16 4 -3 6 -13
3 -23 -5 -14 -4 -14 4 -3 6 8 8 20 5 28 -3 8 0 11 9 8 8 -3 21 2 29 12 13 17
13 17 -6 4 -11 -8 -2 2 19 22 27 24 44 33 51 27 8 -7 12 -4 12 8 0 9 -5 21
-11 25 -7 5 -6 7 4 6 28 -3 41 1 35 10 -3 5 0 13 6 17 7 4 9 3 6 -3 -4 -6 -1
-13 7 -16 9 -4 12 0 9 12 -2 10 4 24 14 32 16 13 17 12 5 -3 -10 -12 -10 -18
-1 -24 7 -4 9 -3 5 4 -3 6 -2 13 4 17 5 3 10 13 10 22 0 9 8 22 18 29 10 8 12
13 5 14 -7 0 -13 5 -13 11 0 5 5 7 10 4 6 -3 11 1 11 9 3 36 6 41 19 38 8 -2
11 0 7 4 -11 11 -38 14 -31 3 3 -5 0 -9 -5 -9 -15 0 -14 6 5 35 9 14 12 25 6
25 -13 0 -23 28 -12 35 5 3 12 0 16 -6 5 -8 3 -9 -6 -4 -9 5 -11 4 -6 -4 11
-16 26 -3 19 16 -4 10 -2 14 5 9 6 -3 14 -1 18 5 4 8 3 9 -4 5 -17 -10 -15 3
3 21 8 8 12 20 8 26 -3 7 -2 8 2 4 5 -4 15 3 23 15 7 13 11 15 8 6 -3 -10 -1
-18 4 -18 6 0 10 4 10 10 0 5 14 17 30 25 18 9 28 20 24 27 -5 8 -1 9 10 5 9
-4 15 -3 12 2 -8 12 19 33 30 23 5 -4 0 3 -10 15 -18 22 -18 22 2 18 15 -2 19
0 15 11 -3 7 -10 11 -17 7 -7 -4 -7 -2 1 8 10 12 10 18 1 27 -7 7 -8 12 -2 12
5 0 15 -5 21 -11 8 -8 13 -7 18 2 5 7 4 10 -2 6 -10 -6 -45 28 -36 36 3 3 12
3 21 1 14 -5 14 -4 -1 6 -9 6 -15 15 -12 20 3 5 1 11 -5 15 -16 10 -2 25 18
19 9 -3 6 1 -7 9 -18 11 -20 16 -10 20 12 5 12 7 -1 17 -13 10 -13 11 3 6 9
-3 17 -3 17 1 0 3 -8 12 -17 19 -17 13 -17 14 1 8 16 -6 17 -4 7 14 -8 15 -8
23 1 28 6 4 8 3 4 -4 -3 -6 -1 -14 5 -18 8 -5 9 -3 4 6 -6 10 -3 12 11 7 18
-7 18 -6 2 6 -10 8 -16 17 -13 21 3 3 -1 2 -7 -4 -15 -12 -31 -13 -24 -1 9 14
-23 6 -37 -9 -9 -11 -8 -11 8 0 19 14 19 14 6 -3 -8 -10 -21 -15 -29 -12 -12
4 -12 2 -3 -8 9 -12 7 -14 -11 -13 -13 1 -31 -7 -40 -17 -9 -10 -19 -18 -23
-17 -3 0 -13 -6 -21 -15 -12 -11 -12 -15 -2 -15 10 0 9 -3 -2 -10 -21 -14 -32
-12 -25 3 4 6 -1 3 -9 -7 -9 -11 -16 -23 -16 -26 0 -4 -12 -12 -26 -18 -15 -7
-22 -17 -18 -24 4 -7 3 -8 -5 -4 -6 4 -9 12 -6 17 5 8 -16 14 -37 10 -5 0 -8
4 -8 10 0 5 -6 7 -12 3 -8 -5 -7 0 2 11 9 11 10 16 3 11 -8 -4 -13 -1 -13 8 0
9 -7 16 -16 16 -12 0 -15 6 -11 21 4 15 2 18 -7 10 -16 -14 -18 18 -2 39 9 13
9 13 -6 2 -11 -9 -18 -10 -23 -2 -5 8 -11 8 -21 -1 -11 -9 -14 -9 -14 1 0 8
-7 5 -17 -7 -10 -11 -25 -22 -33 -26 -9 -3 -10 -6 -2 -6 6 -1 12 -6 12 -12 0
-6 -7 -8 -16 -5 -14 5 -15 4 -4 -9 11 -13 10 -14 -4 -9 -9 3 -23 0 -32 -7 -12
-10 -15 -10 -12 2 2 8 -3 13 -12 11 -8 -2 -12 0 -8 4 4 4 2 14 -5 23 -10 14
-10 14 4 4 9 -7 19 -10 22 -6 4 3 -1 11 -10 18 -16 12 -29 50 -14 40 4 -2 8 2
8 10 0 8 -4 12 -9 9 -4 -3 -8 0 -8 6 0 6 -4 9 -8 6 -5 -3 -9 2 -9 10 0 10 4
11 11 4 5 -5 14 -10 19 -10 5 0 2 7 -7 15 -8 9 -12 23 -9 32 5 12 2 15 -9 10
-9 -3 -19 -3 -23 1 -4 4 -16 7 -28 7 -12 1 -28 5 -36 9 -9 6 -12 5 -7 -2 3 -5
-6 -20 -21 -32 -16 -12 -22 -18 -14 -14 10 5 12 3 7 -5 -6 -9 -12 -8 -26 4
-14 13 -19 13 -28 2 -7 -8 -9 -17 -5 -20 3 -4 -3 -7 -15 -7 -11 0 -24 -4 -27
-10 -3 -5 -10 -10 -14 -10 -11 0 -35 52 -32 70 2 13 1 13 -9 0 -10 -12 -11
-11 -7 7 4 17 1 20 -12 16 -13 -5 -14 -3 -3 8 14 15 16 33 3 24 -5 -3 -12 -1
-15 4 -4 5 -1 13 5 17 8 5 9 3 4 -7 -5 -8 -4 -10 0 -6 12 11 15 37 4 37 -5 0
-9 7 -9 15 0 8 -5 15 -11 15 -5 0 -7 -6 -3 -12 4 -7 -1 -5 -11 4 -16 15 -16
19 -4 34 9 12 10 15 2 10 -12 -6 -18 11 -14 37 0 4 -4 7 -10 7 -6 0 -9 -7 -6
-15 7 -18 -9 -30 -19 -14 -5 8 -3 9 6 4 9 -5 11 -4 6 4 -6 9 -11 9 -22 0 -7
-6 -11 -15 -8 -20 3 -5 -2 -6 -10 -3 -19 7 -21 -7 -3 -26 6 -8 2 -6 -11 5 -20
17 -22 17 -16 2 3 -10 3 -17 -2 -16 -5 1 -26 1 -47 0 -28 -1 -36 -4 -31 -13 5
-9 2 -9 -9 1 -17 14 -24 26 -9 17 4 -2 14 -1 22 5 12 7 11 9 -4 9 -20 0 -20 0
0 14 19 14 19 14 -1 13 -16 -2 -20 4 -20 33 -1 19 4 41 9 49 8 11 8 13 -1 7
-7 -4 -13 -2 -13 3 0 6 5 11 10 11 6 0 5 6 -2 14 -11 12 -14 11 -20 -3 -6 -14
-7 -14 -7 2 -1 9 -6 17 -12 17 -5 0 -7 -6 -3 -12 6 -10 4 -10 -8 0 -12 9 -18
10 -23 2 -4 -7 -16 -10 -26 -7 -16 4 -17 2 -8 -14 12 -23 6 -24 -15 -3 -9 9
-16 11 -16 4 0 -6 -4 -8 -10 -5 -6 4 -7 -1 -3 -12 5 -14 3 -16 -7 -6 -8 8 -20
9 -36 3 -18 -7 -22 -6 -17 5 3 8 10 12 16 8 6 -3 7 -1 3 6 -4 6 -11 9 -15 6
-5 -2 -17 2 -27 10 -10 8 -27 15 -38 15 -15 0 -16 3 -7 14 10 12 8 13 -9 9
-14 -4 -20 -1 -18 8 2 8 -3 13 -10 11 -8 -1 -11 2 -7 8 3 6 12 8 18 4 7 -3 2
3 -11 15 -13 11 -18 22 -12 26 5 3 10 1 10 -6 0 -7 3 -9 6 -6 4 4 1 14 -7 24
-12 14 -12 16 1 11 11 -4 16 1 17 14 2 17 0 18 -15 7 -9 -8 -7 -2 6 12 12 14
19 30 15 34 -5 5 0 3 10 -4 15 -12 17 -12 11 4 -5 13 -4 16 4 11 7 -4 12 -2
12 3 0 6 5 10 11 9 6 -2 13 5 14 15 2 9 -1 17 -6 17 -6 0 -7 5 -3 11 4 8 12 3
20 -12 7 -13 13 -18 14 -10 0 8 3 11 6 8 4 -3 15 -2 25 4 15 7 17 6 13 -6 -4
-8 -1 -21 5 -29 6 -7 9 -21 5 -30 -4 -11 -1 -16 10 -16 9 0 16 -5 16 -11 0 -5
-6 -7 -12 -4 -7 4 -5 0 4 -8 10 -8 15 -17 11 -21 -4 -4 1 -4 12 0 18 7 19 6 5
-11 -8 -10 -10 -16 -3 -12 16 10 43 -2 43 -19 0 -12 4 -12 20 -4 14 7 20 7 20
0 0 -5 5 -10 11 -10 5 0 8 4 4 9 -3 5 0 13 6 17 7 4 9 3 5 -4 -3 -6 -2 -13 4
-17 6 -3 10 3 10 15 0 16 4 20 16 16 8 -3 13 -2 10 3 -3 4 2 17 10 27 9 10 12
13 8 5 -5 -10 -3 -12 5 -7 9 6 9 11 1 21 -10 12 -8 13 10 10 19 -4 20 -2 9 13
-7 9 -9 14 -5 10 5 -4 15 0 22 10 9 11 14 13 15 5 1 -7 2 -17 3 -22 0 -5 4
-13 8 -16 4 -4 5 5 3 21 -4 27 -4 28 7 7 6 -13 15 -23 20 -23 5 0 6 5 2 12 -5
7 -3 8 5 4 9 -6 8 -13 -5 -27 -16 -17 -15 -18 5 -14 25 5 29 -12 4 -18 -14 -4
-12 -5 5 -6 12 0 22 -5 22 -11 0 -5 -6 -8 -12 -6 -7 1 -10 1 -5 -1 4 -3 4 -10
1 -15 -4 -6 -3 -8 3 -5 6 4 19 0 29 -8 18 -15 18 -15 -1 -9 -16 5 -17 4 -5 -5
8 -6 23 -11 33 -11 9 0 26 -15 37 -32 11 -18 20 -29 20 -24 0 5 6 4 13 -2 12
-9 57 1 57 13 0 4 -6 3 -12 -1 -7 -4 -2 4 11 19 14 16 31 24 44 21 15 -2 18
-1 10 7 -13 13 -6 39 9 39 6 0 4 -7 -3 -17 -13 -15 -12 -15 7 -5 12 6 25 8 29
4 5 -4 4 0 -1 8 -11 20 -14 41 -4 35 4 -2 16 5 26 16 10 11 24 17 31 15 7 -3
13 0 13 6 0 7 7 3 15 -8 8 -10 15 -31 15 -46 0 -14 6 -29 13 -32 6 -3 1 -3
-13 0 l-25 5 25 -15 c14 -9 19 -15 12 -16 -8 0 -6 -7 7 -22 23 -23 18 -43 -8
-33 -13 5 -14 4 -3 -7 10 -10 17 -10 32 0 18 11 18 10 -2 -26 -19 -35 -19 -35
0 -13 14 18 21 21 27 11 5 -8 4 -11 -1 -7 -6 3 -10 -4 -11 -16 0 -12 1 -16 4
-9 3 6 10 9 15 6 7 -4 8 -2 4 4 -4 7 -2 12 5 12 8 0 7 5 -2 17 -13 15 -12 15
9 4 16 -9 22 -9 22 0 0 8 5 7 17 -2 9 -8 14 -9 10 -3 -8 14 36 57 48 47 4 -5
5 -2 1 5 -6 11 -13 9 -30 -7 -17 -16 -23 -18 -23 -7 0 8 4 13 8 11 3 -3 12 2
19 9 6 8 20 13 31 11 16 -3 17 -1 9 14 -8 16 -6 17 15 13 15 -2 25 0 25 7 0 7
-5 9 -12 5 -7 -4 -8 -3 -4 4 5 9 13 9 28 1 12 -6 18 -7 14 -1 -6 10 23 26 32
17 3 -3 1 -5 -4 -5 -5 0 -10 -9 -10 -19 0 -11 5 -19 10 -18 6 1 15 -8 20 -20
6 -12 17 -24 26 -27 11 -3 10 -4 -3 -5 -10 0 -16 -5 -12 -11 3 -5 11 -8 18 -6
7 1 9 1 5 -1 -5 -3 -8 -12 -8 -22 0 -9 -6 -23 -12 -30 -11 -11 -10 -12 1 -6
11 6 13 4 8 -9 -4 -9 -3 -14 2 -11 5 3 12 1 16 -4 3 -5 14 -8 24 -6 10 2 18
-3 18 -10 0 -8 -4 -12 -9 -9 -4 3 -8 1 -8 -5 0 -5 9 -9 19 -8 10 0 17 6 14 13
-3 8 8 11 35 10 28 -2 39 1 35 10 -6 16 14 27 23 13 4 -8 3 -9 -4 -5 -17 10
-15 1 2 -13 12 -10 14 -8 12 13 -3 23 -1 24 18 14 18 -10 19 -9 9 4 -11 13 -8
15 18 13 18 -1 33 4 36 11 3 8 10 11 16 7 6 -3 7 -1 3 5 -4 6 -13 9 -21 6 -8
-4 -12 -11 -8 -17 4 -6 1 -7 -7 -2 -18 11 18 38 43 31 10 -2 21 2 24 10 4 11
7 11 19 -1 18 -18 18 -31 0 -16 -10 9 -15 8 -19 -3 -3 -7 -1 -18 5 -24 6 -6 6
-12 -3 -17 -8 -6 -10 -4 -4 6 5 8 4 11 0 6 -11 -9 -14 -48 -4 -41 4 2 11 -1
15 -7 4 -7 3 -9 -3 -6 -6 4 -19 -1 -30 -11 -10 -9 -13 -13 -7 -9 9 6 11 2 7
-12 -3 -12 -9 -18 -14 -15 -5 3 -9 -2 -9 -11 0 -10 5 -14 13 -10 6 4 4 0 -7
-9 -16 -13 -14 -42 3 -32 4 3 7 -6 7 -19 0 -13 -4 -21 -8 -19 -5 3 -6 9 -3 14
3 4 -1 12 -8 18 -9 8 -15 4 -23 -13 -9 -19 -9 -22 2 -18 8 3 21 0 29 -7 12
-10 16 -9 21 4 3 9 10 16 16 16 5 0 6 -6 2 -12 -6 -10 -5 -10 8 -1 8 7 18 10
21 6 4 -3 7 -1 7 6 0 7 -7 11 -15 8 -8 -4 -17 -1 -21 5 -4 7 -3 8 4 4 7 -4 12
-2 12 5 0 7 8 5 22 -7 12 -10 18 -13 14 -6 -7 11 5 17 28 13 4 -1 14 4 22 10
12 10 13 9 8 -5 -5 -14 -3 -15 19 -7 16 6 28 6 35 -1 6 -6 12 -6 17 3 5 7 4
10 -3 5 -6 -3 -16 2 -21 13 -9 16 -8 18 11 13 13 -3 19 -1 15 5 -3 5 0 10 8
10 8 0 12 -4 9 -8 -2 -4 0 -10 5 -13 5 -4 8 5 7 19 -4 29 18 53 30 34 5 -8 3
-9 -6 -4 -9 5 -11 4 -6 -4 11 -18 24 -4 21 23 -2 18 1 23 12 19 12 -5 12 -7 1
-15 -11 -8 -11 -9 0 -6 8 2 13 8 13 13 0 6 7 17 15 26 10 11 11 18 3 26 -8 8
-7 13 2 18 8 5 10 4 5 -3 -4 -7 -3 -12 1 -12 5 0 14 9 21 21 10 16 10 24 1 35
-9 11 -8 15 5 20 12 5 13 10 6 24 -8 16 -7 18 10 15 11 -2 18 0 16 4 -6 10 28
44 36 36 2 -3 5 1 5 9 0 12 -5 11 -23 -2 -13 -9 -24 -20 -24 -24 0 -5 -5 -8
-10 -8 -6 0 -5 8 2 20 7 10 14 17 17 15 2 -3 13 3 24 12 15 13 21 15 24 6 3
-7 9 -13 14 -13 6 0 8 3 6 8 -3 4 1 13 9 20 8 7 14 8 14 2 0 -5 5 -10 11 -10
5 0 7 5 4 10 -3 6 2 10 12 10 17 1 16 2 -2 16 -19 15 -18 15 13 10 19 -2 31
-2 28 1 -3 4 0 13 6 22 10 13 10 14 -2 4 -20 -19 -34 -16 -16 3 9 8 14 19 11
24 -8 12 23 33 40 26 12 -4 12 -1 -2 21 -10 15 -13 24 -7 20 14 -8 38 18 29
33 -3 5 1 10 9 10 10 0 13 -6 9 -17 -5 -13 -3 -13 13 3 16 15 17 21 7 32 -19
20 -16 24 8 11 17 -9 20 -8 14 2 -6 9 -2 11 13 7 15 -4 22 -2 22 9 0 9 -5 11
-12 7 -9 -5 -9 -2 1 9 7 9 19 17 25 17 6 0 4 -5 -4 -11 -13 -9 -13 -10 0 -6 8
2 15 10 15 18 1 8 7 13 15 11 11 -3 11 0 -1 14 -13 16 -12 16 10 5 13 -7 21
-8 17 -3 -10 17 5 41 22 36 9 -3 6 2 -8 10 -19 12 -21 15 -8 16 12 0 15 5 11
17 -4 11 -3 14 5 9 7 -4 12 -3 12 3 0 5 -6 11 -12 14 -10 3 -10 8 1 18 9 9 11
9 7 2 -4 -7 -5 -13 -2 -13 3 0 10 10 17 21 8 15 8 19 0 15 -6 -4 -11 -2 -11 5
0 7 8 9 21 6 16 -4 18 -3 8 9 -9 11 -8 14 2 14 11 0 11 2 -1 10 -13 9 -13 10
0 10 13 0 13 1 0 10 -13 8 -12 10 3 10 10 0 16 4 12 9 -3 5 0 13 6 17 7 4 9 3
5 -4 -3 -6 -2 -13 4 -17 5 -3 10 1 10 10 0 10 5 14 13 10 6 -4 4 0 -6 8 -15
12 -15 16 -3 20 8 3 17 1 20 -6 2 -7 5 -2 5 11 1 15 5 21 13 16 8 -5 9 -2 5
10 -4 9 -3 15 1 12 4 -2 16 3 27 11 20 16 20 16 0 9 -19 -6 -19 -5 -2 8 14 11
15 15 5 20 -7 3 -3 4 10 2 17 -3 21 -1 14 7 -12 15 -12 48 0 41 5 -3 6 -9 3
-14 -3 -5 -2 -11 3 -14 4 -2 8 36 9 86 2 80 0 88 -13 72 -12 -17 -13 -17 -8
-1 8 22 -3 22 -24 -1 -10 -10 -13 -12 -8 -4 10 14 -11 35 -25 26 -4 -2 -9 1
-11 7 -3 8 -15 6 -41 -4 -22 -10 -39 -12 -42 -6 -4 5 -11 7 -16 4 -5 -4 -9 -2
-9 3 0 5 -7 9 -15 9 -8 0 -15 -5 -15 -10 0 -5 -8 -3 -17 4 -11 10 -14 10 -9 2
4 -7 2 -13 -3 -13 -6 0 -11 6 -11 13 0 8 -4 7 -10 -3 -5 -8 -10 -10 -10 -4 0
7 -7 15 -16 18 -13 5 -14 3 -6 -7 8 -10 6 -13 -9 -13 -10 0 -19 4 -19 9 0 5
-7 4 -15 -3 -12 -10 -15 -10 -15 0 0 10 -3 10 -14 1 -11 -9 -16 -9 -22 0 -5 8
-3 9 5 4 10 -5 10 -3 0 13 -11 18 -14 18 -28 4 -14 -14 -16 -13 -22 9 -4 13
-7 18 -8 12 -1 -7 -5 -13 -11 -13 -5 0 -7 8 -4 18 5 15 4 15 -6 -1 -11 -18
-12 -18 -27 0 -8 10 -12 12 -8 6 3 -7 1 -13 -4 -13 -6 0 -11 6 -11 14 0 8 -7
17 -16 20 -23 9 -26 8 -18 -6 4 -7 -2 -5 -14 6 -19 16 -24 17 -39 5 -15 -12
-16 -12 -11 3 4 9 0 24 -8 35 -9 10 -13 12 -9 5 4 -8 -1 -11 -17 -8 -13 3 -25
6 -28 7 -14 6 -36 4 -42 -5 -4 -6 -16 -3 -29 9 -12 11 -19 14 -14 6 5 -9 4
-12 -3 -7 -5 3 -12 1 -14 -6 -3 -7 -7 -5 -11 6 -4 10 -3 15 3 11 6 -3 10 1 10
10 0 9 -4 14 -9 10 -19 -11 -69 -12 -65 -1 3 7 -4 12 -15 12 -11 0 -17 -4 -15
-8 3 -4 0 -8 -5 -8 -6 0 -11 5 -11 12 0 9 -3 9 -11 1 -13 -13 -42 -6 -34 7 3
5 1 11 -4 14 -5 4 -13 1 -17 -5 -5 -8 -3 -9 7 -4 12 7 12 6 1 -8 -20 -24 -65
-2 -57 27 5 19 5 19 -5 4 -6 -10 -16 -18 -21 -18 -6 0 -7 4 -4 10 3 6 -1 7
-10 4 -10 -4 -14 -13 -10 -23 5 -12 4 -13 -6 -4 -9 9 -9 16 -1 26 9 11 8 13
-6 12 -9 0 -23 -4 -30 -9 -6 -4 -12 -2 -12 3 0 6 -5 11 -11 11 -5 0 -8 -3 -5
-8 2 -4 -11 -8 -30 -8 -24 0 -33 3 -30 12 6 14 -19 9 -43 -10 -11 -8 -13 -8
-8 1 9 15 -13 23 -35 11 -14 -6 -16 -5 -12 7 3 8 10 13 14 10 5 -3 12 0 16 6
4 7 3 9 -4 5 -6 -3 -14 -1 -18 5 -5 9 -11 7 -21 -6 -12 -18 -13 -18 -13 -1 0
15 -3 16 -14 7 -11 -9 -16 -9 -22 0 -4 8 -3 9 4 5 7 -4 12 -2 12 3 0 10 -14
15 -33 12 -5 -1 -6 3 -3 8 3 5 -1 14 -10 21 -8 7 -11 16 -7 19 5 3 -3 17 -16
31 -13 14 -20 19 -16 11 6 -10 4 -12 -4 -7 -9 6 -9 11 -1 21 12 14 -3 29 -29
30 -8 0 -16 7 -18 15 -4 13 -3 13 6 0 7 -9 11 -11 11 -3 0 7 -12 24 -26 39
-15 14 -24 19 -21 11 4 -11 1 -14 -8 -10 -11 4 -12 10 -4 25 9 17 8 18 -9 9
-22 -12 -36 -3 -22 14 7 8 5 12 -5 12 -8 0 -15 -5 -15 -10 0 -6 -3 -7 -6 -4
-4 4 -1 13 6 22 14 17 0 21 -17 4 -13 -13 -67 33 -55 47 4 4 -1 2 -10 -5 -10
-7 -18 -9 -18 -4 0 6 -8 10 -17 10 -40 0 -54 4 -48 12 3 5 0 13 -6 17 -8 5 -9
3 -4 -6 5 -8 3 -11 -6 -8 -8 3 -13 10 -12 16 3 11 -15 11 -34 -1 -8 -5 -13 -3
-13 3 0 6 -5 8 -10 5 -6 -4 -8 -12 -4 -18 3 -7 -1 -4 -9 6 -8 9 -21 17 -29 17
-8 0 -19 5 -26 10 -9 7 -9 7 -2 -2 14 -17 12 -31 -2 -21 -19 11 -37 12 -44 2
-3 -5 -10 -9 -17 -9 -6 0 -2 6 8 14 11 8 24 12 30 9 5 -4 7 -3 3 2 -4 4 -2 15
4 24 10 12 8 12 -8 -1 -26 -23 -41 -23 -23 -1 13 15 12 15 -8 3 -12 -8 -19
-19 -15 -25 3 -5 -1 -4 -10 2 -8 7 -19 9 -23 5 -5 -4 -5 -1 -1 6 4 7 11 10 16
7 5 -3 11 -1 14 3 6 10 -57 8 -74 -3 -7 -4 -10 -1 -8 10 3 19 -28 30 -38 14
-9 -14 -24 -10 -18 5 3 8 0 17 -7 22 -8 4 -10 3 -5 -4 4 -7 2 -20 -4 -29 -10
-16 -11 -16 -6 -1 2 9 -2 22 -10 29 -12 10 -13 9 -8 -5 5 -13 2 -15 -12 -9
-11 3 -22 11 -26 17 -5 7 -8 7 -8 -2 0 -7 -4 -11 -10 -7 -5 3 -6 13 -3 23 7
16 6 16 -10 0 -23 -23 -53 -13 -35 11 12 15 11 15 -7 0 -37 -30 -50 -32 -26
-6 14 15 19 27 13 27 -7 0 -12 -4 -12 -10 0 -5 -13 -10 -30 -10 -16 0 -30 5
-30 10 0 6 -5 10 -11 10 -5 0 -8 -4 -5 -9 4 -5 -2 -8 -11 -6 -10 2 -18 4 -18
5 0 9 -35 5 -35 -3 -1 -7 -7 -1 -14 13 -8 14 -12 28 -10 32 9 14 -4 9 -20 -8
-15 -14 -16 -14 -16 3 0 15 -2 16 -10 3 -7 -11 -10 -11 -10 -2 0 8 -5 10 -12
5 -26 -16 -38 -12 -27 8 9 19 9 19 -13 7 -13 -7 -26 -17 -29 -21 -6 -9 -24 21
-21 35 1 4 -6 4 -15 1 -9 -4 -14 -2 -10 3 3 6 -5 10 -18 10 -13 0 -21 -4 -19
-8 3 -5 10 -5 16 -2 7 4 8 2 4 -4 -5 -9 -13 -9 -27 -2 -11 6 -17 15 -14 20 3
4 -4 6 -15 3 -11 -3 -17 -10 -13 -16 3 -6 1 -7 -5 -3 -6 4 -9 12 -6 19 3 8 -5
13 -21 15 -15 1 -24 -2 -20 -8 3 -6 1 -10 -4 -10 -6 0 -11 8 -11 18 0 19 -31
24 -47 9 -4 -4 -13 3 -20 15 l-12 23 -1 -25 c0 -20 -2 -22 -10 -10 -9 13 -11
13 -20 0 -6 -9 -10 -10 -10 -3 0 6 5 15 10 18 6 3 10 12 9 18 0 9 -2 8 -6 -1
-2 -6 -9 -10 -14 -6 -5 3 -9 1 -9 -4 0 -5 -10 -13 -22 -17 -34 -10 -58 -12
-53 -4 3 4 -6 6 -19 5 -18 -1 -22 -4 -14 -13 7 -9 3 -10 -20 -3 -25 7 -34 4
-49 -13 -10 -11 -12 -17 -5 -13 6 4 12 3 12 -3 0 -5 -9 -9 -19 -8 -11 0 -18 4
-16 7 2 3 -7 6 -20 6 -19 0 -22 -3 -15 -16 6 -12 5 -17 -5 -17 -8 0 -12 4 -9
9 3 4 -2 8 -11 8 -9 0 -14 -4 -10 -9 8 -15 -9 -21 -25 -9 -12 8 -12 9 3 4 10
-3 15 -2 12 4 -7 11 -41 8 -52 -5 -5 -4 -2 -5 6 0 9 5 12 4 7 -3 -4 -7 -2 -12
5 -12 7 0 10 -3 6 -6 -9 -9 -48 22 -39 31 4 5 1 5 -6 1 -7 -5 -11 -14 -9 -20
3 -7 -1 -13 -9 -13 -9 0 -13 6 -10 14 4 9 1 11 -5 7 -6 -4 -15 -1 -19 6 -5 8
-9 7 -13 -5 -4 -9 -3 -13 3 -10 6 3 10 1 10 -4 0 -14 -17 -14 -25 -1 -4 6 -12
7 -18 3 -18 -13 -52 -9 -49 6 1 7 -2 10 -8 6 -6 -3 -7 -11 -4 -17 4 -6 1 -8
-7 -6 -8 3 -13 10 -12 16 2 6 -4 9 -12 6 -8 -4 -13 -9 -11 -13 3 -4 -4 -8 -15
-8 -18 -2 -19 0 -7 14 11 14 11 15 -7 6 -11 -6 -30 -9 -42 -7 -12 2 -25 -1
-28 -6 -4 -6 -12 -7 -18 -3 -19 12 -37 12 -37 2 0 -6 -5 -7 -11 -3 -16 9 9 23
34 18 11 -2 17 0 13 4 -4 4 -19 7 -34 8 -15 1 -31 3 -37 4 -22 5 -36 -1 -29
-12 4 -7 3 -8 -4 -4 -6 4 -9 12 -6 20 3 7 -2 13 -10 13 -8 0 -13 -4 -10 -9 3
-4 0 -8 -5 -8 -6 0 -11 5 -11 11 0 8 -6 7 -17 -2 -9 -8 -14 -9 -11 -4 3 6 -1
17 -10 25 -14 13 -15 12 -9 -3 4 -10 3 -16 -2 -12 -5 3 -11 2 -14 -2 -2 -5 -2
-3 -1 4 5 20 -28 35 -74 34 -13 -1 -21 3 -17 8 3 5 0 13 -6 17 -8 4 -9 3 -5
-4 5 -8 -1 -12 -14 -12 -16 0 -20 5 -16 15 3 8 1 15 -4 15 -6 0 -10 -7 -10
-15 0 -8 -4 -15 -9 -15 -6 0 -8 9 -6 21 3 16 1 18 -9 10 -7 -6 -16 -8 -19 -4
-4 3 -7 0 -7 -7 0 -7 -3 -10 -6 -7 -4 4 -1 14 7 23 13 16 12 16 -7 6 -26 -14
-57 -9 -62 9 -2 8 0 10 5 4 4 -5 15 -11 23 -13 11 -2 10 2 -3 12 -11 8 -26 12
-35 9 -11 -5 -13 -3 -7 6 6 10 3 11 -15 1 -19 -10 -25 -9 -39 5 -9 10 -11 15
-4 11 6 -3 14 -2 17 3 4 5 -5 8 -19 6 -16 -1 -25 3 -25 12 0 11 -4 11 -22 2
-21 -11 -22 -11 -9 5 12 14 12 16 -4 9 -15 -5 -17 -3 -12 11 4 9 3 15 -2 11
-5 -3 -12 -1 -16 4 -3 6 -12 8 -20 5 -7 -3 -19 4 -25 17 -10 17 -14 19 -21 8
-7 -11 -9 -10 -9 4 0 18 -29 21 -41 4 -3 -5 -9 -1 -12 8 -4 9 -3 13 3 10 6 -3
10 1 10 10 0 9 -4 13 -10 10 -9 -6 -14 8 -11 28 1 5 -3 6 -9 2 -5 -3 -10 -2
-10 2 0 5 -11 9 -25 9 -23 0 -24 -1 -10 -22z m25 1 c4 3 11 -2 14 -10 4 -13 2
-14 -14 -5 -11 6 -20 16 -19 23 0 9 2 9 6 -1 2 -6 8 -10 13 -7z m65 -154 c-3
-6 3 -14 12 -20 10 -6 13 -11 7 -11 -15 0 -36 25 -27 33 10 10 15 8 8 -2z
m512 -133 c-3 -8 -6 -5 -6 6 -1 11 2 17 5 13 3 -3 4 -12 1 -19z m762 1 c-15
-9 -32 -2 -24 11 3 5 13 6 21 3 12 -4 13 -8 3 -14z m302 -12 c-10 -9 -11 -8
-5 6 3 10 9 15 12 12 3 -3 0 -11 -7 -18z m-1451 -57 c0 -5 -2 -10 -4 -10 -3 0
-8 5 -11 10 -3 6 -1 10 4 10 6 0 11 -4 11 -10z m-630 -84 c0 -2 -8 -10 -17
-17 -16 -13 -17 -12 -4 4 13 16 21 21 21 13z m2774 -8 c-3 -4 -9 -8 -15 -8 -5
0 -9 4 -9 8 0 5 7 9 15 9 8 0 12 -4 9 -9z m-3018 -14 c18 -14 18 -14 -6 -3
-31 14 -36 19 -24 19 6 0 19 -7 30 -16z m811 -26 c-3 -8 -6 -5 -6 6 -1 11 2
17 5 13 3 -3 4 -12 1 -19z m133 18 c0 -2 -7 -6 -15 -10 -8 -3 -15 -1 -15 4 0
6 7 10 15 10 8 0 15 -2 15 -4z m2355 -35 c3 -5 2 -12 -3 -15 -5 -3 -9 1 -9 9
0 17 3 19 12 6z m-3173 -75 c7 4 8 2 4 -5 -9 -13 -26 -5 -25 12 0 9 2 8 6 -1
2 -6 10 -9 15 -6z m3512 -134 c3 -5 -1 -9 -9 -9 -8 0 -12 4 -9 9 3 4 7 8 9 8
2 0 6 -4 9 -8z m-3750 -81 c3 -5 -1 -11 -9 -14 -9 -4 -12 -1 -8 9 6 16 10 17
17 5z m-239 -11 c3 -5 1 -10 -4 -10 -6 0 -11 5 -11 10 0 6 2 10 4 10 3 0 8 -4
11 -10z m4745 -180 c0 -5 -2 -10 -4 -10 -3 0 -8 5 -11 10 -3 6 -1 10 4 10 6 0
11 -4 11 -10z m60 -16 c0 -2 -9 -4 -20 -4 -11 0 -20 4 -20 9 0 5 9 7 20 4 11
-3 20 -7 20 -9z m213 -89 c-3 -9 -8 -14 -10 -11 -3 3 -2 9 2 15 9 16 15 13 8
-4z m345 -31 c2 -1 -11 -1 -27 0 -32 1 -41 11 -18 19 6 2 19 -1 27 -7 8 -5 16
-11 18 -12z m-6289 -27 c8 -10 7 -14 -2 -14 -8 0 -14 6 -14 14 0 7 1 13 2 13
2 0 8 -6 14 -13z m6348 -42 c0 -8 -4 -12 -9 -9 -5 3 -6 10 -3 15 9 13 12 11
12 -6z m-6384 -338 c3 -7 -3 -13 -14 -13 -13 0 -15 3 -7 13 6 7 12 13 13 13 2
0 5 -6 8 -13z m-139 -26 c-8 -9 -44 -11 -44 -3 0 4 11 8 25 8 13 0 22 -2 19
-5z m6306 -81 c0 -5 -5 -10 -11 -10 -5 0 -7 5 -4 10 3 6 8 10 11 10 2 0 4 -4
4 -10z m-6745 -40 l20 -25 -22 19 c-13 11 -23 24 -23 29 0 6 1 8 3 6 1 -2 11
-15 22 -29z m4625 -159 c0 -4 -6 -8 -13 -8 -8 0 -14 6 -14 13 0 7 6 10 14 7 7
-3 13 -8 13 -12z m-55 -31 c3 -6 -1 -7 -9 -4 -18 7 -21 14 -7 14 6 0 13 -4 16
-10z m-4765 -90 c0 -5 -2 -10 -4 -10 -3 0 -8 5 -11 10 -3 6 -1 10 4 10 6 0 11
-4 11 -10z m6197 -162 c-3 -8 -6 -5 -6 6 -1 11 2 17 5 13 3 -3 4 -12 1 -19z
m-1407 -4 c0 -8 -19 -13 -24 -6 -3 5 1 9 9 9 8 0 15 -2 15 -3z m-4960 -30 c0
-8 -19 -13 -24 -6 -3 5 1 9 9 9 8 0 15 -2 15 -3z m6105 -34 c-3 -5 -12 -10
-18 -10 -7 0 -6 4 3 10 19 12 23 12 15 0z m565 -4 c0 -3 -4 -8 -10 -11 -5 -3
-10 -1 -10 4 0 6 5 11 10 11 6 0 10 -2 10 -4z m-1435 -96 c3 -6 -1 -7 -9 -4
-18 7 -21 14 -7 14 6 0 13 -4 16 -10z m396 -113 c-6 -8 -8 -17 -4 -20 3 -4 1
-7 -5 -7 -15 0 -15 13 0 28 16 16 23 15 9 -1z m-187 -33 c18 -17 21 -28 7 -20
-5 4 -11 3 -14 -1 -2 -5 -2 -2 -1 4 2 7 -5 17 -14 22 -9 6 -12 11 -5 11 6 0
19 -7 27 -16z m119 -5 c4 -16 3 -18 -9 -8 -7 6 -11 15 -8 20 8 13 11 11 17
-12z m-6150 -14 c-3 -9 -8 -14 -10 -11 -3 3 -2 9 2 15 9 16 15 13 8 -4z m-3
-59 c0 -2 -7 -7 -16 -10 -8 -3 -12 -2 -9 4 6 10 25 14 25 6z m6448 -20 c-7 -8
-15 -12 -17 -11 -5 6 10 25 20 25 5 0 4 -6 -3 -14z m-6118 -180 c0 -3 -4 -8
-10 -11 -5 -3 -10 -1 -10 4 0 6 5 11 10 11 6 0 10 -2 10 -4z m6543 -59 c4 3 7
4 7 1 0 -3 -8 -12 -17 -19 -10 -7 -15 -9 -11 -5 4 5 2 16 -5 25 -10 14 -10 14
4 4 9 -7 19 -10 22 -6z m-44 -58 c-22 -13 -31 -11 -17 5 7 8 17 12 22 9 4 -3
2 -9 -5 -14z m-1336 -72 c7 3 8 2 4 -3 -11 -12 -57 -13 -57 -1 0 5 7 7 15 3 8
-3 15 0 16 7 0 9 2 9 6 -1 2 -6 10 -9 16 -5z m-4876 -82 c0 -8 -4 -12 -9 -9
-5 3 -6 10 -3 15 9 13 12 11 12 -6z m4608 -24 c3 -5 0 -13 -6 -17 -7 -4 -9 -3
-5 4 3 5 0 13 -6 15 -9 4 -10 6 -1 6 6 1 14 -3 18 -8z m655 -285 c0 -2 -7 -7
-16 -10 -8 -3 -12 -2 -9 4 6 10 25 14 25 6z m-1282 -374 c12 9 11 6 -2 -10
-11 -12 -24 -22 -30 -21 -7 0 -7 2 1 5 7 3 11 11 9 17 -1 7 -1 8 2 4 2 -4 11
-2 20 5z m199 -204 c-3 -8 -6 -5 -6 6 -1 11 2 17 5 13 3 -3 4 -12 1 -19z m38
12 c3 -5 1 -10 -4 -10 -6 0 -11 5 -11 10 0 6 2 10 4 10 3 0 8 -4 11 -10z
m-3483 -14 c7 4 8 2 4 -5 -9 -13 -26 -5 -25 12 0 9 2 8 6 -1 2 -6 10 -9 15 -6z
m204 -141 c-1 -8 -5 -17 -8 -21 -5 -4 -4 16 1 34 3 9 9 -1 7 -13z m2637 -36
c-8 -8 -13 -7 -18 2 -5 8 -4 10 3 5 7 -4 12 -2 12 5 0 7 3 9 7 6 4 -4 2 -12
-4 -18z m47 -15 c0 -3 -7 -1 -15 6 -8 7 -15 17 -15 22 0 5 7 3 15 -6 8 -8 15
-18 15 -22z m-93 -19 c0 -8 -4 -12 -9 -9 -5 3 -6 10 -3 15 9 13 12 11 12 -6z
m283 11 c0 -3 -4 -8 -10 -11 -5 -3 -10 -1 -10 4 0 6 5 11 10 11 6 0 10 -2 10
-4z m-2870 -26 c0 -5 -2 -10 -4 -10 -3 0 -8 5 -11 10 -3 6 -1 10 4 10 6 0 11
-4 11 -10z m2757 -95 c0 -8 -4 -12 -9 -9 -5 3 -6 10 -3 15 9 13 12 11 12 -6z
m-283 -80 c-4 -8 -13 -15 -20 -15 -12 0 -12 3 -2 15 17 19 29 19 22 0z m-1874
-159 c0 -2 -7 -7 -16 -10 -8 -3 -12 -2 -9 4 6 10 25 14 25 6z m-660 -41 c-7
-9 -15 -13 -17 -11 -7 7 7 26 19 26 6 0 6 -6 -2 -15z m-30 0 c0 -2 -6 -8 -13
-14 -10 -8 -14 -7 -14 2 0 8 6 14 14 14 7 0 13 -1 13 -2z m2220 -200 c0 -1 -6
-8 -14 -14 -11 -9 -16 -9 -22 0 -5 8 -3 9 6 4 10 -6 12 -4 7 8 -4 11 -2 14 9
10 7 -3 14 -6 14 -8z m-1556 -56 c-3 -5 -10 -7 -15 -3 -5 3 -7 10 -3 15 3 5
10 7 15 3 5 -3 7 -10 3 -15z m6 -23 c0 -3 -4 -8 -10 -11 -5 -3 -10 -1 -10 4 0
6 5 11 10 11 6 0 10 -2 10 -4z m373 -131 c-3 -9 -8 -14 -10 -11 -3 3 -2 9 2
15 9 16 15 13 8 -4z m972 -244 c3 -5 2 -12 -3 -15 -5 -3 -9 1 -9 9 0 17 3 19
12 6z m-800 -150 c-3 -5 -1 -12 5 -16 6 -4 8 -11 4 -16 -9 -14 -23 -1 -19 19
5 23 4 22 11 22 3 0 3 -4 -1 -9z m376 -88 c13 -16 12 -17 -3 -4 -17 13 -22 21
-14 21 2 0 10 -8 17 -17z m-334 -62 c0 -11 -5 -18 -9 -15 -4 3 -5 11 -1 19 7
21 12 19 10 -4z m743 3 c0 -8 -19 -13 -24 -6 -3 5 1 9 9 9 8 0 15 -2 15 -3z"/>
<path d="M3661 6924 c0 -11 3 -14 6 -6 3 7 2 16 -1 19 -3 4 -6 -2 -5 -13z"/>
<path d="M5020 6723 c0 -19 14 -22 35 -7 10 8 14 14 8 14 -7 0 -15 -5 -19 -11
-4 -8 -9 -7 -15 2 -6 10 -9 10 -9 2z"/>
<path d="M4414 6640 c0 -13 4 -16 10 -10 7 7 7 13 0 20 -6 6 -10 3 -10 -10z"/>
<path d="M5401 6644 c0 -11 3 -14 6 -6 3 7 2 16 -1 19 -3 4 -6 -2 -5 -13z"/>
<path d="M2845 6611 c3 -3 -5 -11 -17 -19 -18 -10 -19 -12 -3 -6 11 3 27 7 35
8 21 3 19 20 -2 21 -10 1 -16 -1 -13 -4z"/>
<path d="M5573 6613 c-17 -6 -17 -20 0 -20 8 0 14 6 14 14 0 7 -1 13 -1 12 -1
0 -7 -3 -13 -6z"/>
<path d="M3548 6493 c7 -3 16 -2 19 1 4 3 -2 6 -13 5 -11 0 -14 -3 -6 -6z"/>
<path d="M3490 6482 c0 -4 9 -8 20 -9 11 -1 20 2 20 5 0 4 -9 8 -20 9 -11 1
-20 -2 -20 -5z"/>
<path d="M6276 6438 c3 -5 10 -6 15 -3 13 9 11 12 -6 12 -8 0 -12 -4 -9 -9z"/>
<path d="M6370 6406 c0 -2 8 -10 18 -17 15 -13 16 -12 3 4 -13 16 -21 21 -21
13z"/>
<path d="M2951 6207 c-8 -10 -7 -14 2 -14 8 0 14 6 14 14 0 7 -1 13 -2 13 -2
0 -8 -6 -14 -13z"/>
<path d="M2295 6200 c-4 -6 -5 -10 -3 -11 25 -6 38 -6 38 1 0 12 -29 20 -35
10z"/>
<path d="M2470 6171 c0 -6 5 -13 12 -17 6 -4 8 -3 4 4 -3 5 0 13 6 15 8 3 6 6
-4 6 -10 1 -18 -3 -18 -8z"/>
<path d="M2646 6153 c-6 -14 -5 -15 5 -6 7 7 10 15 7 18 -3 3 -9 -2 -12 -12z"/>
<path d="M2715 6160 c3 -5 8 -10 11 -10 2 0 4 5 4 10 0 6 -5 10 -11 10 -5 0
-7 -4 -4 -10z"/>
<path d="M6617 6163 c-9 -8 12 -33 27 -33 6 0 3 5 -7 11 -9 6 -15 14 -12 20 7
10 2 12 -8 2z"/>
<path d="M6745 6080 c3 -5 8 -10 11 -10 2 0 4 5 4 10 0 6 -5 10 -11 10 -5 0
-7 -4 -4 -10z"/>
<path d="M6810 6070 c0 -5 5 -10 11 -10 5 0 7 5 4 10 -3 6 -8 10 -11 10 -2 0
-4 -4 -4 -10z"/>
<path d="M7002 6058 c-16 -16 -15 -25 4 -32 13 -5 14 -4 6 7 -9 10 -8 17 0 25
7 7 10 12 7 12 -3 0 -10 -5 -17 -12z"/>
<path d="M2085 5850 c-10 -11 -15 -23 -12 -26 4 -4 9 1 13 10 3 9 9 14 13 11
4 -2 8 2 8 10 0 19 0 19 -22 -5z"/>
<path d="M1735 5800 c3 -5 8 -10 11 -10 2 0 4 5 4 10 0 6 -5 10 -11 10 -5 0
-7 -4 -4 -10z"/>
<path d="M1772 5793 c7 -9 14 -10 23 -3 6 5 14 7 17 4 3 -3 8 -1 11 3 3 5 -10
9 -28 9 -27 0 -32 -3 -23 -13z"/>
<path d="M1438 5793 c7 -3 16 -2 19 1 4 3 -2 6 -13 5 -11 0 -14 -3 -6 -6z"/>
<path d="M1755 5500 c3 -5 8 -10 11 -10 2 0 4 5 4 10 0 6 -5 10 -11 10 -5 0
-7 -4 -4 -10z"/>
<path d="M1715 5489 c-4 -6 -5 -12 -2 -15 2 -3 7 2 10 11 7 17 1 20 -8 4z"/>
<path d="M845 5480 c-13 -21 -13 -47 0 -47 8 0 12 9 9 24 -3 17 -1 22 7 17 8
-4 9 -3 5 4 -9 15 -13 15 -21 2z"/>
<path d="M950 5442 c0 -5 7 -9 15 -9 8 0 12 4 9 9 -3 4 -9 8 -15 8 -5 0 -9 -4
-9 -8z"/>
<path d="M1115 5419 c-4 -6 -5 -12 -2 -15 2 -3 7 2 10 11 7 17 1 20 -8 4z"/>
<path d="M1487 5413 c3 -7 9 -10 14 -7 14 8 11 21 -5 21 -8 0 -12 -6 -9 -14z"/>
<path d="M1234 5409 c-3 -6 -2 -15 3 -20 5 -5 9 -1 9 11 0 23 -2 24 -12 9z"/>
<path d="M1316 5405 c-3 -8 -1 -15 4 -15 6 0 10 7 10 15 0 8 -2 15 -4 15 -2 0
-6 -7 -10 -15z"/>
<path d="M7565 5081 c-6 -11 9 -23 19 -14 9 9 7 23 -3 23 -6 0 -12 -4 -16 -9z"/>
<path d="M6315 4980 c-10 -11 -15 -23 -12 -27 4 -3 7 -1 7 6 0 7 5 9 13 5 6
-4 9 -4 5 1 -4 4 -3 14 3 22 18 21 4 15 -16 -7z"/>
<path d="M6355 4989 c-5 -8 -4 -10 3 -5 8 5 12 -1 13 -16 1 -18 2 -19 6 -4 6
23 -12 43 -22 25z"/>
<path d="M476 4892 c-3 -5 1 -9 9 -9 8 0 12 4 9 9 -3 4 -7 8 -9 8 -2 0 -6 -4
-9 -8z"/>
<path d="M6070 4889 c0 -5 5 -7 11 -3 8 4 9 -1 5 -17 -3 -13 -3 -18 0 -11 3 6
10 9 16 6 6 -4 5 2 -1 15 -12 22 -31 29 -31 10z"/>
<path d="M6211 4886 c-8 -10 -8 -16 2 -24 10 -8 13 -5 15 14 2 28 -1 30 -17
10z"/>
<path d="M6390 4876 c0 -2 8 -10 18 -17 15 -13 16 -12 3 4 -13 16 -21 21 -21
13z"/>
<path d="M5843 4795 c0 -8 4 -12 9 -9 5 3 6 10 3 15 -9 13 -12 11 -12 -6z"/>
<path d="M726 4761 c-4 -5 -2 -12 3 -15 5 -4 12 -2 15 3 4 5 2 12 -3 15 -5 4
-12 2 -15 -3z"/>
<path d="M6733 4725 c0 -7 6 -12 13 -12 7 0 15 5 17 12 3 6 -3 11 -12 11 -10
0 -18 -5 -18 -11z"/>
<path d="M660 4674 c0 -8 5 -12 10 -9 6 4 8 11 5 16 -9 14 -15 11 -15 -7z"/>
<path d="M6963 4655 c-7 -8 -9 -16 -4 -19 5 -3 12 1 15 10 8 22 4 25 -11 9z"/>
<path d="M6350 4593 c6 -14 16 -20 25 -17 18 7 20 17 3 11 -7 -2 -19 3 -26 12
-11 14 -12 13 -2 -6z"/>
<path d="M390 4534 c0 -8 5 -12 10 -9 6 3 10 10 10 16 0 5 -4 9 -10 9 -5 0
-10 -7 -10 -16z"/>
<path d="M150 4516 c0 -2 7 -7 16 -10 8 -3 12 -2 9 4 -6 10 -25 14 -25 6z"/>
<path d="M6426 4398 c3 -5 10 -6 15 -3 13 9 11 12 -6 12 -8 0 -12 -4 -9 -9z"/>
<path d="M6715 4348 l-20 -21 22 12 c23 12 40 31 26 30 -4 0 -17 -10 -28 -21z"/>
<path d="M6967 4349 c7 -7 15 -10 18 -7 3 3 -2 9 -12 12 -14 6 -15 5 -6 -5z"/>
<path d="M473 4201 c0 -11 5 -18 9 -15 4 3 5 11 1 19 -7 21 -12 19 -10 -4z"/>
<path d="M6830 4059 c0 -5 5 -7 10 -4 6 3 10 8 10 11 0 2 -4 4 -10 4 -5 0 -10
-5 -10 -11z"/>
<path d="M5675 4050 c-3 -5 -1 -10 4 -10 6 0 11 5 11 10 0 6 -2 10 -4 10 -3 0
-8 -4 -11 -10z"/>
<path d="M5714 4039 c-4 -7 -3 -9 4 -5 5 3 13 0 15 -6 4 -9 6 -10 6 -1 1 17
-16 25 -25 12z"/>
<path d="M5755 4030 c-3 -5 -1 -10 4 -10 6 0 11 5 11 10 0 6 -2 10 -4 10 -3 0
-8 -4 -11 -10z"/>
<path d="M502 4018 c-15 -15 -15 -28 -1 -28 5 0 7 5 4 10 -3 6 1 10 10 10 9 0
14 -4 11 -8 -3 -5 1 -9 9 -9 13 0 12 4 -2 19 -19 21 -16 21 -31 6z"/>
<path d="M638 3913 c6 -2 18 -2 25 0 6 3 1 5 -13 5 -14 0 -19 -2 -12 -5z"/>
<path d="M5973 3885 c0 -8 4 -12 9 -9 5 3 6 10 3 15 -9 13 -12 11 -12 -6z"/>
<path d="M645 3760 c3 -5 8 -10 11 -10 2 0 4 5 4 10 0 6 -5 10 -11 10 -5 0 -7
-4 -4 -10z"/>
<path d="M5075 3740 c-3 -5 -1 -10 4 -10 6 0 11 5 11 10 0 6 -2 10 -4 10 -3 0
-8 -4 -11 -10z"/>
<path d="M6605 3680 c-10 -11 -15 -23 -12 -27 4 -3 7 -1 7 6 0 7 5 9 13 5 6
-4 9 -4 5 1 -4 4 -3 14 3 22 18 21 4 15 -16 -7z"/>
<path d="M607 3591 c-14 -28 -14 -29 2 -19 9 5 17 19 17 29 0 25 -2 24 -19
-10z"/>
<path d="M917 3591 c-10 -14 -10 -14 4 -4 9 7 18 10 21 7 3 -3 8 -1 12 4 9 16
-24 9 -37 -7z"/>
<path d="M6475 3580 c-3 -5 -1 -10 4 -10 6 0 11 5 11 10 0 6 -2 10 -4 10 -3 0
-8 -4 -11 -10z"/>
<path d="M6381 3521 c-22 -17 -22 -18 -5 -25 10 -4 15 -4 11 0 -4 4 0 16 10
26 21 23 15 23 -16 -1z"/>
<path d="M1123 3483 c4 -3 1 -13 -6 -22 -11 -14 -10 -14 6 -2 20 15 22 31 5
31 -6 0 -8 -3 -5 -7z"/>
<path d="M6317 3449 c7 -7 15 -10 18 -7 3 3 -2 9 -12 12 -14 6 -15 5 -6 -5z"/>
<path d="M4933 3236 c3 -7 0 -19 -6 -25 -9 -9 -8 -11 5 -6 17 7 21 45 5 45 -5
0 -7 -6 -4 -14z"/>
<path d="M1100 3220 c-9 -6 -10 -10 -3 -10 6 0 15 5 18 10 8 12 4 12 -15 0z"/>
<path d="M4925 3180 c-3 -6 1 -7 9 -4 18 7 21 14 7 14 -6 0 -13 -4 -16 -10z"/>
<path d="M1530 3096 c0 -2 8 -10 18 -17 15 -13 16 -12 3 4 -13 16 -21 21 -21
13z"/>
<path d="M1186 3022 c-3 -5 1 -9 9 -9 8 0 12 4 9 9 -3 4 -7 8 -9 8 -2 0 -6 -4
-9 -8z"/>
<path d="M1590 3006 c0 -2 7 -6 15 -10 8 -3 15 -1 15 4 0 6 -7 10 -15 10 -8 0
-15 -2 -15 -4z"/>
<path d="M4500 2961 c0 -6 4 -13 10 -16 6 -3 7 1 4 9 -7 18 -14 21 -14 7z"/>
<path d="M1080 2940 c-9 -6 -10 -10 -3 -10 6 0 15 5 18 10 8 12 4 12 -15 0z"/>
<path d="M1038 2933 c6 -2 9 -10 6 -15 -4 -7 -2 -8 5 -4 13 9 5 26 -12 25 -9
0 -8 -2 1 -6z"/>
<path d="M4496 2834 c-5 -14 -4 -15 9 -4 17 14 19 20 6 20 -5 0 -12 -7 -15
-16z"/>
<path d="M1597 2763 c3 -7 6 -13 8 -13 2 0 5 6 8 13 3 8 -1 14 -8 14 -7 0 -11
-6 -8 -14z"/>
<path d="M4496 2762 c-3 -5 1 -9 9 -9 8 0 12 4 9 9 -3 4 -7 8 -9 8 -2 0 -6 -4
-9 -8z"/>
<path d="M1550 2645 c0 -5 5 -17 10 -25 5 -8 10 -10 10 -5 0 6 -5 17 -10 25
-5 8 -10 11 -10 5z"/>
<path d="M4506 2638 c3 -5 10 -6 15 -3 13 9 11 12 -6 12 -8 0 -12 -4 -9 -9z"/>
<path d="M4442 2570 c7 -10 14 -18 15 -16 6 6 -9 36 -18 36 -5 0 -4 -9 3 -20z"/>
<path d="M2190 2576 c0 -2 9 -6 20 -9 11 -3 18 -1 14 4 -5 9 -34 13 -34 5z"/>
<path d="M1831 2554 c0 -11 3 -14 6 -6 3 7 2 16 -1 19 -3 4 -6 -2 -5 -13z"/>
<path d="M1850 2561 c0 -6 4 -13 10 -16 6 -3 7 1 4 9 -7 18 -14 21 -14 7z"/>
<path d="M4070 2559 c0 -5 5 -7 10 -4 6 3 10 8 10 11 0 2 -4 4 -10 4 -5 0 -10
-5 -10 -11z"/>
<path d="M3797 2303 c3 -7 6 -13 8 -13 2 0 5 6 8 13 3 8 -1 14 -8 14 -7 0 -11
-6 -8 -14z"/>
<path d="M2159 2147 c6 -8 7 -18 3 -22 -4 -5 -1 -5 6 -1 10 6 10 11 1 22 -6 8
-14 14 -16 14 -3 0 0 -6 6 -13z"/>
<path d="M2716 2032 c-3 -5 1 -9 9 -9 8 0 12 4 9 9 -3 4 -7 8 -9 8 -2 0 -6 -4
-9 -8z"/>
<path d="M2117 2013 c-10 -9 -9 -23 1 -23 5 0 9 7 9 15 0 17 -1 18 -10 8z"/>
<path d="M4030 2000 c0 -5 5 -10 10 -10 6 0 10 5 10 10 0 6 -4 10 -10 10 -5 0
-10 -4 -10 -10z"/>
<path d="M3417 1636 c-4 -10 -1 -13 8 -9 8 3 12 9 9 14 -7 12 -11 11 -17 -5z"/>
<path d="M3105 1521 c-3 -5 0 -13 6 -17 7 -4 9 -3 5 4 -3 5 0 13 6 15 9 4 10
6 1 6 -6 1 -14 -3 -18 -8z"/>
<path d="M2913 1205 c0 -8 4 -12 9 -9 5 3 6 10 3 15 -9 13 -12 11 -12 -6z"/>
<path d="M2961 1114 c0 -11 3 -14 6 -6 3 7 2 16 -1 19 -3 4 -6 -2 -5 -13z"/>
</g>
</svg>
